# This file uses centimeters as units for non-parametric coordinates.

mtllib Crate2.mtl
g default
v -77.766731 100.771069 40.977468
v -81.992914 100.771069 31.914390
v 74.918118 100.771069 -30.220646
v 70.691935 100.771069 -39.283724
v 74.918118 110.771069 -30.220646
v 70.691935 110.771069 -39.283724
v -77.766731 110.771069 40.977468
v -81.992914 110.771069 31.914390
vt 0.729440 0.371462
vt 0.748201 0.371459
vt 0.748237 0.687530
vt 0.729476 0.687532
vt 0.538955 0.872343
vt 0.538957 0.891105
vt 0.222886 0.891141
vt 0.222884 0.872380
vt 0.471096 0.018775
vt 0.489858 0.018775
vt 0.489858 0.037536
vt 0.471096 0.037536
vt 0.060787 0.018781
vt 0.079548 0.018781
vt 0.079548 0.037543
vt 0.060787 0.037543
vt 0.538954 0.853581
vt 0.538957 0.872343
vt 0.222887 0.872379
vt 0.222884 0.853618
vt 0.538955 0.834817
vt 0.538957 0.853579
vt 0.222887 0.853617
vt 0.222884 0.834856
vn 0.000000 -1.000000 0.000000
vn 0.000000 -1.000000 0.000000
vn 0.000000 -1.000000 0.000000
vn 0.000000 -1.000000 0.000000
vn 0.906308 0.000000 -0.422618
vn 0.906308 0.000000 -0.422618
vn 0.906308 0.000000 -0.422618
vn 0.906308 0.000000 -0.422618
vn 0.000000 1.000000 -0.000000
vn 0.000000 1.000000 -0.000000
vn 0.000000 1.000000 -0.000000
vn 0.000000 1.000000 -0.000000
vn -0.906308 -0.000000 0.422618
vn -0.906308 -0.000000 0.422618
vn -0.906308 -0.000000 0.422618
vn -0.906308 -0.000000 0.422618
vn -0.422618 0.000000 -0.906308
vn -0.422618 0.000000 -0.906308
vn -0.422618 0.000000 -0.906308
vn -0.422618 0.000000 -0.906308
vn 0.422618 0.000000 0.906308
vn 0.422618 0.000000 0.906308
vn 0.422618 0.000000 0.906308
vn 0.422618 0.000000 0.906308
s off
g pasted__pasted__pasted__pasted__pCube2 pasted__pasted__pasted__group pasted__pasted__group1 pasted__group2 group3
usemtl Maya_Lambert17SG
f 1/17/1 2/18/2 4/19/3 3/20/4
f 3/9/5 4/10/6 6/11/7 5/12/8
f 5/21/9 6/22/10 8/23/11 7/24/12
f 7/13/13 8/14/14 2/15/15 1/16/16
f 2/1/17 8/2/18 6/3/19 4/4/20
f 7/5/21 1/6/22 3/7/23 5/8/24
g default
v -89.906721 19.462226 -35.659371
v -89.906721 26.533294 -42.730439
v -89.906721 102.136046 47.014449
v -89.906721 109.207114 39.943381
v -99.906721 102.136046 47.014449
v -99.906721 109.207114 39.943381
v -99.906721 19.462226 -35.659371
v -99.906721 26.533294 -42.730439
vt 0.861144 0.371461
vt 0.879905 0.371459
vt 0.879926 0.590813
vt 0.861164 0.590815
vt 0.999449 0.742901
vt 0.999451 0.761662
vt 0.780097 0.761682
vt 0.780095 0.742921
vt 0.592670 0.000004
vt 0.611431 0.000004
vt 0.611431 0.018765
vt 0.592670 0.018766
vt 0.349523 0.018787
vt 0.368284 0.018787
vt 0.368284 0.037549
vt 0.349523 0.037549
vt 0.249748 0.267334
vt 0.249749 0.286095
vt 0.030395 0.286116
vt 0.030393 0.267355
vt 0.568877 0.000004
vt 0.568879 0.018765
vt 0.349525 0.018787
vt 0.349523 0.000026
vn 1.000000 0.000000 0.000000
vn 1.000000 0.000000 0.000000
vn 1.000000 0.000000 0.000000
vn 1.000000 0.000000 0.000000
vn 0.000000 0.707107 0.707107
vn 0.000000 0.707107 0.707107
vn 0.000000 0.707107 0.707107
vn 0.000000 0.707107 0.707107
vn -1.000000 0.000000 0.000000
vn -1.000000 0.000000 0.000000
vn -1.000000 0.000000 0.000000
vn -1.000000 0.000000 0.000000
vn 0.000000 -0.707107 -0.707107
vn 0.000000 -0.707107 -0.707107
vn 0.000000 -0.707107 -0.707107
vn 0.000000 -0.707107 -0.707107
vn 0.000000 0.707107 -0.707107
vn 0.000000 0.707107 -0.707107
vn 0.000000 0.707107 -0.707107
vn 0.000000 0.707107 -0.707107
vn 0.000000 -0.707107 0.707107
vn 0.000000 -0.707107 0.707107
vn 0.000000 -0.707107 0.707107
vn 0.000000 -0.707107 0.707107
s off
g pasted__pasted__pasted__pCube3 pasted__pasted__group pasted__group1 group2
usemtl Maya_Lambert26SG
f 9/41/25 10/42/26 12/43/27 11/44/28
f 11/33/29 12/34/30 14/35/31 13/36/32
f 13/45/33 14/46/34 16/47/35 15/48/36
f 15/37/37 16/38/38 10/39/39 9/40/40
f 10/25/41 16/26/42 14/27/43 12/28/44
f 15/29/45 9/30/46 11/31/47 13/32/48
g default
v -78.011530 29.139516 50.000000
v -73.785347 20.076438 50.000000
v 73.785347 99.923562 50.000000
v 78.011530 90.860484 50.000000
v 73.785347 99.923562 40.000000
v 78.011530 90.860484 40.000000
v -78.011530 29.139516 40.000000
v -73.785347 20.076438 40.000000
vt 0.749732 0.371459
vt 0.768493 0.371461
vt 0.768463 0.685694
vt 0.749702 0.685692
vt 0.633364 0.906128
vt 0.633363 0.924889
vt 0.319130 0.924859
vt 0.319132 0.906098
vt 0.182360 0.018769
vt 0.201121 0.018769
vt 0.201121 0.037530
vt 0.182360 0.037530
vt 0.390048 0.018783
vt 0.408809 0.018783
vt 0.408809 0.037544
vt 0.390048 0.037544
vt 0.314234 0.891150
vt 0.314233 0.909911
vt 0.000000 0.909881
vt 0.000002 0.891120
vt 0.314234 0.909911
vt 0.314232 0.928673
vt 0.000000 0.928645
vt 0.000002 0.909883
vn 0.000000 0.000000 1.000000
vn 0.000000 0.000000 1.000000
vn 0.000000 0.000000 1.000000
vn 0.000000 0.000000 1.000000
vn 0.906308 0.422618 0.000000
vn 0.906308 0.422618 0.000000
vn 0.906308 0.422618 0.000000
vn 0.906308 0.422618 0.000000
vn 0.000000 0.000000 -1.000000
vn 0.000000 0.000000 -1.000000
vn 0.000000 0.000000 -1.000000
vn 0.000000 0.000000 -1.000000
vn -0.906308 -0.422618 0.000000
vn -0.906308 -0.422618 0.000000
vn -0.906308 -0.422618 0.000000
vn -0.906308 -0.422618 0.000000
vn 0.422618 -0.906308 0.000000
vn 0.422618 -0.906308 0.000000
vn 0.422618 -0.906308 0.000000
vn 0.422618 -0.906308 0.000000
vn -0.422618 0.906308 0.000000
vn -0.422618 0.906308 0.000000
vn -0.422618 0.906308 0.000000
vn -0.422618 0.906308 0.000000
s off
g pCube2
usemtl Maya_Lambert22SG
f 17/65/49 18/66/50 20/67/51 19/68/52
f 19/57/53 20/58/54 22/59/55 21/60/56
f 21/69/57 22/70/58 24/71/59 23/72/60
f 23/61/61 24/62/62 18/63/63 17/64/64
f 18/49/65 24/50/66 22/51/67 20/52/68
f 23/53/69 17/54/70 19/55/71 21/56/72
g default
v -74.997215 30.545114 -39.680357
v -70.771032 21.482036 -39.680357
v 70.771032 98.517964 -39.680357
v 74.997215 89.454886 -39.680357
v 70.771032 98.517964 -49.680357
v 74.997215 89.454886 -49.680357
v -74.997215 30.545114 -49.680357
v -70.771032 21.482036 -49.680357
vt 0.947263 0.000004
vt 0.966024 0.000004
vt 0.966020 0.301757
vt 0.947258 0.301757
vt 0.940012 0.906124
vt 0.940012 0.924885
vt 0.638260 0.924881
vt 0.638260 0.906119
vt 0.121573 0.018775
vt 0.140335 0.018775
vt 0.140335 0.037536
vt 0.121573 0.037536
vt 0.430572 0.018779
vt 0.449333 0.018779
vt 0.449333 0.037540
vt 0.430572 0.037540
vt 0.651276 0.962462
vt 0.651276 0.981223
vt 0.349523 0.981218
vt 0.349523 0.962457
vt 0.980537 0.962472
vt 0.980536 0.981233
vt 0.678784 0.981230
vt 0.678784 0.962469
vn 0.000000 0.000000 1.000000
vn 0.000000 0.000000 1.000000
vn 0.000000 0.000000 1.000000
vn 0.000000 0.000000 1.000000
vn 0.906308 0.422618 0.000000
vn 0.906308 0.422618 0.000000
vn 0.906308 0.422618 0.000000
vn 0.906308 0.422618 0.000000
vn 0.000000 0.000000 -1.000000
vn 0.000000 0.000000 -1.000000
vn 0.000000 0.000000 -1.000000
vn 0.000000 0.000000 -1.000000
vn -0.906308 -0.422618 0.000000
vn -0.906308 -0.422618 0.000000
vn -0.906308 -0.422618 0.000000
vn -0.906308 -0.422618 0.000000
vn 0.422618 -0.906308 0.000000
vn 0.422618 -0.906308 0.000000
vn 0.422618 -0.906308 0.000000
vn 0.422618 -0.906308 0.000000
vn -0.422618 0.906308 0.000000
vn -0.422618 0.906308 0.000000
vn -0.422618 0.906308 0.000000
vn -0.422618 0.906308 0.000000
s off
g pasted__pCube2 group
usemtl Maya_Lambert23SG
f 25/89/73 26/90/74 28/91/75 27/92/76
f 27/81/77 28/82/78 30/83/79 29/84/80
f 29/93/81 30/94/82 32/95/83 31/96/84
f 31/85/85 32/86/86 26/87/87 25/88/88
f 26/73/89 32/74/90 30/75/91 28/76/92
f 31/77/93 25/78/94 27/79/95 29/80/96
g default
v 72.189207 25.155400 49.841861
v 76.415390 34.218478 49.841861
v -76.415390 94.450862 49.841861
v -72.189207 103.513940 49.841861
v -76.415390 94.450862 39.841861
v -72.189207 103.513940 39.841861
v 72.189207 25.155400 39.841861
v 76.415390 34.218478 39.841861
vt 0.926996 0.000007
vt 0.945757 0.000004
vt 0.945807 0.307628
vt 0.927045 0.307631
vt 0.961079 0.943663
vt 0.961082 0.962424
vt 0.653459 0.962473
vt 0.653456 0.943712
vt 0.162098 0.018771
vt 0.180859 0.018771
vt 0.180859 0.037532
vt 0.162098 0.037532
vt 0.020262 0.018785
vt 0.039024 0.018785
vt 0.039024 0.037546
vt 0.020262 0.037546
vt 0.307624 0.947434
vt 0.307627 0.966195
vt 0.000003 0.966245
vt 0.000000 0.947483
vt 0.621688 0.943650
vt 0.621691 0.962412
vt 0.314067 0.962463
vt 0.314064 0.943702
vn 0.000000 0.000000 1.000000
vn 0.000000 0.000000 1.000000
vn 0.000000 0.000000 1.000000
vn 0.000000 0.000000 1.000000
vn -0.906308 0.422618 0.000000
vn -0.906308 0.422618 0.000000
vn -0.906308 0.422618 0.000000
vn -0.906308 0.422618 0.000000
vn 0.000000 0.000000 -1.000000
vn 0.000000 0.000000 -1.000000
vn 0.000000 0.000000 -1.000000
vn 0.000000 0.000000 -1.000000
vn 0.906308 -0.422618 0.000000
vn 0.906308 -0.422618 0.000000
vn 0.906308 -0.422618 0.000000
vn 0.906308 -0.422618 0.000000
vn 0.422618 0.906308 0.000000
vn 0.422618 0.906308 0.000000
vn 0.422618 0.906308 0.000000
vn 0.422618 0.906308 0.000000
vn -0.422618 -0.906308 0.000000
vn -0.422618 -0.906308 0.000000
vn -0.422618 -0.906308 0.000000
vn -0.422618 -0.906308 0.000000
s off
g pCube3
usemtl Maya_Lambert21SG
f 33/113/97 34/114/98 36/115/99 35/116/100
f 35/105/101 36/106/102 38/107/103 37/108/104
f 37/117/105 38/118/106 40/119/107 39/120/108
f 39/109/109 40/110/110 34/111/111 33/112/112
f 34/97/113 40/98/114 38/99/115 36/100/116
f 39/101/117 33/102/118 35/103/119 37/104/120
g default
v -73.228343 100.929209 -28.154950
v -69.002160 100.929209 -37.218027
v 70.596705 100.929209 38.911772
v 74.822887 100.929209 29.848694
v 70.596705 110.929209 38.911772
v 74.822887 110.929209 29.848694
v -73.228343 110.929209 -28.154950
v -69.002160 110.929209 -37.218027
vt 0.962455 0.301757
vt 0.981216 0.301757
vt 0.981222 0.599487
vt 0.962461 0.599488
vt 0.677645 0.981223
vt 0.677646 0.999984
vt 0.379917 0.999990
vt 0.379916 0.981228
vt 0.531883 0.018769
vt 0.550644 0.018769
vt 0.550644 0.037530
vt 0.531883 0.037530
vt 0.450834 0.018777
vt 0.469595 0.018777
vt 0.469595 0.037538
vt 0.450834 0.037538
vt 0.996774 0.981233
vt 0.996775 0.999995
vt 0.699047 1.000000
vt 0.699046 0.981239
vt 0.348386 0.966229
vt 0.348386 0.984990
vt 0.050656 0.984998
vt 0.050656 0.966237
vn 0.000000 -1.000000 0.000000
vn 0.000000 -1.000000 0.000000
vn 0.000000 -1.000000 0.000000
vn 0.000000 -1.000000 0.000000
vn 0.906308 0.000000 0.422618
vn 0.906308 0.000000 0.422618
vn 0.906308 0.000000 0.422618
vn 0.906308 0.000000 0.422618
vn 0.000000 1.000000 0.000000
vn 0.000000 1.000000 0.000000
vn 0.000000 1.000000 0.000000
vn 0.000000 1.000000 0.000000
vn -0.906308 -0.000000 -0.422618
vn -0.906308 -0.000000 -0.422618
vn -0.906308 -0.000000 -0.422618
vn -0.906308 -0.000000 -0.422618
vn 0.422618 0.000000 -0.906308
vn 0.422618 0.000000 -0.906308
vn 0.422618 0.000000 -0.906308
vn 0.422618 0.000000 -0.906308
vn -0.422618 0.000000 0.906308
vn -0.422618 0.000000 0.906308
vn -0.422618 0.000000 0.906308
vn -0.422618 0.000000 0.906308
s off
g pasted__pasted__pasted__group pasted__pasted__group1 pasted__group2 group3 pasted__pasted__pasted__pasted__pCube3
usemtl Maya_Lambert18SG
f 41/137/121 42/138/122 44/139/123 43/140/124
f 43/129/125 44/130/126 46/131/127 45/132/128
f 45/141/129 46/142/130 48/143/131 47/144/132
f 47/133/133 48/134/134 42/135/135 41/136/136
f 42/121/137 48/122/138 46/123/139 44/124/140
f 47/125/141 41/126/142 43/127/143 45/128/144
g default
v -89.748582 24.357614 47.959048
v -89.748582 17.286546 40.887980
v -89.748582 102.713454 -30.396791
v -89.748582 95.642386 -37.467859
v -99.748582 102.713454 -30.396791
v -99.748582 95.642386 -37.467859
v -99.748582 24.357614 47.959048
v -99.748582 17.286546 40.887980
vt 0.749702 0.685696
vt 0.768463 0.685694
vt 0.768490 0.893591
vt 0.749729 0.893593
vt 0.299077 0.384499
vt 0.299079 0.403260
vt 0.091182 0.403287
vt 0.091180 0.384526
vt 0.141835 0.018773
vt 0.160597 0.018773
vt 0.160597 0.037534
vt 0.141836 0.037534
vt 0.081049 0.018779
vt 0.099810 0.018779
vt 0.099810 0.037540
vt 0.081049 0.037540
vt 0.998124 0.761663
vt 0.998127 0.780424
vt 0.790228 0.780451
vt 0.790226 0.761690
vt 0.299078 0.365736
vt 0.299080 0.384497
vt 0.091183 0.384525
vt 0.091180 0.365764
vn 1.000000 0.000000 0.000000
vn 1.000000 0.000000 0.000000
vn 1.000000 0.000000 0.000000
vn 1.000000 0.000000 0.000000
vn 0.000000 0.707107 -0.707107
vn 0.000000 0.707107 -0.707107
vn 0.000000 0.707107 -0.707107
vn 0.000000 0.707107 -0.707107
vn -1.000000 0.000000 -0.000000
vn -1.000000 0.000000 -0.000000
vn -1.000000 0.000000 -0.000000
vn -1.000000 0.000000 -0.000000
vn 0.000000 -0.707107 0.707107
vn 0.000000 -0.707107 0.707107
vn 0.000000 -0.707107 0.707107
vn 0.000000 -0.707107 0.707107
vn 0.000000 -0.707107 -0.707107
vn 0.000000 -0.707107 -0.707107
vn 0.000000 -0.707107 -0.707107
vn 0.000000 -0.707107 -0.707107
vn 0.000000 0.707107 0.707107
vn 0.000000 0.707107 0.707107
vn 0.000000 0.707107 0.707107
vn 0.000000 0.707107 0.707107
s off
g pasted__pasted__group pasted__group1 group2 pasted__pasted__pasted__pCube2
usemtl Maya_Lambert25SG
f 49/161/145 50/162/146 52/163/147 51/164/148
f 51/153/149 52/154/150 54/155/151 53/156/152
f 53/165/153 54/166/154 56/167/155 55/168/156
f 55/157/157 56/158/158 50/159/159 49/160/160
f 50/145/161 56/146/162 54/147/163 52/148/164
f 55/149/165 49/150/166 51/151/167 53/152/168
g default
v -100.000000 11.699732 50.000000
v 100.000000 11.699732 50.000000
v -100.000000 111.699736 50.000000
v 100.000000 111.699736 50.000000
v -100.000000 111.699736 -50.000000
v 100.000000 111.699736 -50.000000
v -100.000000 11.699732 -50.000000
v 100.000000 11.699732 -50.000000
v -70.000000 26.699732 50.000000
v 70.000000 26.699732 50.000000
v 70.000000 96.699736 50.000000
v -70.000000 96.699736 50.000000
v -70.000000 111.699736 35.000000
v 70.000000 111.699736 35.000000
v 70.000000 111.699736 -35.000000
v -70.000000 111.699736 -35.000000
v -70.000000 96.699736 -50.000000
v 70.000000 96.699736 -50.000000
v 70.000000 26.699732 -50.000000
v -70.000000 26.699732 -50.000000
v -70.000000 11.699732 -35.000000
v 70.000000 11.699732 -35.000000
v 70.000000 11.699732 35.000000
v -70.000000 11.699732 35.000000
v 100.000000 26.699732 -35.000000
v 100.000000 26.699732 35.000000
v 100.000000 96.699736 -35.000000
v 100.000000 96.699736 35.000000
v -100.000000 26.699732 -35.000000
v -100.000000 26.699732 35.000000
v -100.000000 96.699736 35.000000
v -100.000000 96.699736 -35.000000
v -70.000000 26.699732 40.000000
v 70.000000 26.699732 40.000000
v 70.000000 96.699736 40.000000
v -70.000000 96.699736 40.000000
v -70.000000 101.699736 35.000000
v 70.000000 101.699736 35.000000
v 70.000000 101.699736 -35.000000
v -70.000000 101.699736 -35.000000
v -70.000000 96.699736 -40.000000
v 70.000000 96.699736 -40.000000
v 70.000000 26.699732 -40.000000
v -70.000000 26.699732 -40.000000
v -70.000000 21.699732 -35.000000
v 70.000000 21.699732 -35.000000
v 70.000000 21.699732 35.000000
v -70.000000 21.699732 35.000000
v 80.000000 26.699732 -35.000000
v 80.000000 26.699732 35.000000
v 80.000000 96.699736 -35.000000
v 80.000000 96.699736 35.000000
v -80.000000 26.699732 -35.000000
v -80.000000 26.699732 35.000000
v -80.000000 96.699736 35.000000
v -80.000000 96.699736 -35.000000
vt 0.521752 0.076509
vt 0.653081 0.076509
vt 0.653081 0.207839
vt 0.521752 0.207839
vt 0.172229 0.076509
vt 0.303558 0.076509
vt 0.303558 0.207839
vt 0.172229 0.207839
vt 0.349523 0.534664
vt 0.537136 0.534664
vt 0.508994 0.562806
vt 0.377665 0.562806
vt 0.537136 0.722277
vt 0.508994 0.694135
vt 0.349523 0.722277
vt 0.377665 0.694135
vt 0.000000 0.534664
vt 0.187613 0.534664
vt 0.159471 0.562806
vt 0.028142 0.562806
vt 0.187613 0.722277
vt 0.159471 0.694135
vt 0.000000 0.722277
vt 0.028142 0.694135
vt 0.499989 0.087471
vt 0.499989 0.218801
vt 0.481227 0.218801
vt 0.481227 0.087471
vt 0.501490 0.213320
vt 0.501490 0.081990
vt 0.520251 0.081990
vt 0.520251 0.213320
vt 0.717808 0.371459
vt 0.717808 0.502788
vt 0.699046 0.502788
vt 0.699046 0.371459
vt 0.925495 0.313713
vt 0.925495 0.445042
vt 0.906734 0.445042
vt 0.906734 0.313713
vt 0.151967 0.213320
vt 0.151967 0.081990
vt 0.170728 0.081990
vt 0.170728 0.213320
vt 0.150466 0.087471
vt 0.150466 0.218800
vt 0.131704 0.218800
vt 0.131704 0.087471
vt 0.349523 0.510584
vt 0.349523 0.379254
vt 0.368284 0.379254
vt 0.368284 0.510584
vt -0.000000 0.510583
vt -0.000000 0.379254
vt 0.018761 0.379254
vt 0.018761 0.510583
vt 0.699046 0.371459
vt 0.699046 0.185732
vt 0.884774 0.185732
vt 0.884774 0.371459
vt 0.542014 0.720392
vt 0.727742 0.720392
vt 0.727742 0.906119
vt 0.542014 0.906119
vt 0.012706 0.092028
vt 0.346966 0.000000
vt 0.306866 0.040100
vt 0.061858 0.106376
vt 0.346966 0.267334
vt 0.306866 0.227234
vt 0.079632 0.267334
vt 0.119732 0.227234
vt 0.362229 0.359358
vt 0.696489 0.267330
vt 0.656389 0.307430
vt 0.411381 0.373706
vt 0.696489 0.534664
vt 0.656389 0.494564
vt 0.429155 0.534664
vt 0.469255 0.494564
vt 0.769964 0.742915
vt 0.769964 0.557187
vt 0.796496 0.557187
vt 0.796496 0.742915
vt 0.826890 0.371459
vt 0.826890 0.557187
vt 0.800357 0.557187
vt 0.800357 0.371459
vt 0.800357 0.742914
vt 0.800357 0.557187
vt 0.826890 0.557187
vt 0.826890 0.742914
vt 0.796496 0.371459
vt 0.796496 0.557187
vt 0.769964 0.557187
vt 0.769964 0.371459
vt 0.310204 0.534664
vt 0.310204 0.720391
vt 0.283671 0.720391
vt 0.283671 0.534664
vt 0.249417 0.534664
vt 0.249417 0.720392
vt 0.222884 0.720392
vt 0.222884 0.534664
vt 0.830751 0.557186
vt 0.830751 0.371459
vt 0.857283 0.371459
vt 0.857283 0.557186
vt 0.314064 0.720392
vt 0.314064 0.534664
vt 0.340597 0.534664
vt 0.340597 0.720392
vt 0.699046 0.000004
vt 0.884774 0.000004
vt 0.884774 0.185732
vt 0.699046 0.185732
vt 0.542014 0.720392
vt 0.542014 0.534664
vt 0.727742 0.534664
vt 0.727742 0.720392
vt 0.012706 0.359358
vt 0.346966 0.267330
vt 0.306866 0.307430
vt 0.061858 0.373706
vt 0.346966 0.534664
vt 0.306866 0.494564
vt 0.079632 0.534664
vt 0.119732 0.494564
vt 0.362229 0.092028
vt 0.696489 0.000000
vt 0.656389 0.040100
vt 0.411382 0.106376
vt 0.696489 0.267334
vt 0.656389 0.227234
vt 0.429155 0.267334
vt 0.469255 0.227234
vt 0.192491 0.720392
vt 0.192491 0.534664
vt 0.219024 0.534664
vt 0.219024 0.720392
vt 0.933266 0.493358
vt 0.933266 0.679085
vt 0.906734 0.679085
vt 0.906734 0.493358
vt 0.253278 0.720392
vt 0.253278 0.534664
vt 0.279810 0.534664
vt 0.279810 0.720392
vt 0.857283 0.557186
vt 0.857283 0.742913
vt 0.830751 0.742913
vt 0.830751 0.557186
vt 0.026533 0.138461
vt 0.026533 0.324189
vt 0.000000 0.324189
vt 0.000000 0.138461
vt 0.958594 0.307630
vt 0.958594 0.493358
vt 0.932062 0.493358
vt 0.932062 0.307630
vt 0.967520 0.185731
vt 0.967520 0.000004
vt 0.994053 0.000004
vt 0.994053 0.185731
vt 0.349523 0.324189
vt 0.349523 0.138461
vt 0.376056 0.138461
vt 0.376056 0.324189
vt 0.349523 0.358964
vt 0.000000 0.534664
vt 0.028142 0.562806
vt 0.349523 0.534664
vt 0.377665 0.562806
vt 0.426096 0.368160
vt 0.349523 0.091635
vt 0.426096 0.100830
vt 0.000000 0.091635
vt 0.076573 0.100830
vt -0.000000 0.358964
vt 0.076573 0.368160
vn 0.000000 0.000000 1.000000
vn 0.000000 0.000000 1.000000
vn 0.000000 0.000000 1.000000
vn 0.000000 0.000000 1.000000
vn 0.000000 1.000000 0.000000
vn 0.000000 1.000000 0.000000
vn 0.000000 1.000000 0.000000
vn 0.000000 1.000000 0.000000
vn 0.000000 0.000000 -1.000000
vn 0.000000 0.000000 -1.000000
vn 0.000000 0.000000 -1.000000
vn 0.000000 0.000000 -1.000000
vn 0.000000 -1.000000 0.000000
vn 0.000000 -1.000000 0.000000
vn 0.000000 -1.000000 0.000000
vn 0.000000 -1.000000 0.000000
vn 1.000000 0.000000 0.000000
vn 1.000000 0.000000 0.000000
vn 1.000000 0.000000 0.000000
vn 1.000000 0.000000 0.000000
vn -1.000000 0.000000 0.000000
vn -1.000000 0.000000 0.000000
vn -1.000000 0.000000 0.000000
vn -1.000000 0.000000 0.000000
vn 0.000000 0.000000 1.000000
vn 0.000000 0.000000 1.000000
vn 0.000000 0.000000 1.000000
vn 0.000000 0.000000 1.000000
vn 0.000000 0.000000 1.000000
vn 0.000000 0.000000 1.000000
vn 0.000000 0.000000 1.000000
vn 0.000000 0.000000 1.000000
vn 0.000000 0.000000 1.000000
vn 0.000000 0.000000 1.000000
vn 0.000000 0.000000 1.000000
vn 0.000000 0.000000 1.000000
vn 0.000000 0.000000 1.000000
vn 0.000000 0.000000 1.000000
vn 0.000000 0.000000 1.000000
vn 0.000000 0.000000 1.000000
vn 0.000000 1.000000 -0.000000
vn 0.000000 1.000000 -0.000000
vn 0.000000 1.000000 -0.000000
vn 0.000000 1.000000 -0.000000
vn 0.000000 1.000000 0.000000
vn 0.000000 1.000000 0.000000
vn 0.000000 1.000000 0.000000
vn 0.000000 1.000000 0.000000
vn 0.000000 1.000000 0.000000
vn 0.000000 1.000000 0.000000
vn 0.000000 0.000000 -1.000000
vn 0.000000 0.000000 -1.000000
vn 0.000000 0.000000 -1.000000
vn 0.000000 0.000000 -1.000000
vn 0.000000 0.000000 -1.000000
vn 0.000000 0.000000 -1.000000
vn 0.000000 0.000000 -1.000000
vn 0.000000 0.000000 -1.000000
vn 0.000000 -1.000000 0.000000
vn 0.000000 -1.000000 0.000000
vn 0.000000 -1.000000 0.000000
vn 0.000000 -1.000000 0.000000
vn 0.000000 -1.000000 0.000000
vn 0.000000 -1.000000 0.000000
vn 0.000000 -1.000000 0.000000
vn 0.000000 -1.000000 0.000000
vn 1.000000 0.000000 0.000000
vn 1.000000 0.000000 0.000000
vn 1.000000 0.000000 0.000000
vn 1.000000 0.000000 0.000000
vn 1.000000 0.000000 0.000000
vn 1.000000 0.000000 0.000000
vn 1.000000 0.000000 0.000000
vn 1.000000 0.000000 0.000000
vn -1.000000 0.000000 0.000000
vn -1.000000 0.000000 0.000000
vn -1.000000 0.000000 0.000000
vn -1.000000 0.000000 0.000000
vn -1.000000 0.000000 0.000000
vn -1.000000 0.000000 0.000000
vn -1.000000 0.000000 0.000000
vn -1.000000 0.000000 0.000000
vn 0.000000 1.000000 0.000000
vn 0.000000 1.000000 0.000000
vn 0.000000 1.000000 0.000000
vn 0.000000 1.000000 0.000000
vn -1.000000 0.000000 0.000000
vn -1.000000 0.000000 0.000000
vn -1.000000 0.000000 0.000000
vn -1.000000 0.000000 0.000000
vn 0.000000 -1.000000 0.000000
vn 0.000000 -1.000000 0.000000
vn 0.000000 -1.000000 0.000000
vn 0.000000 -1.000000 0.000000
vn 1.000000 0.000000 0.000000
vn 1.000000 0.000000 0.000000
vn 1.000000 0.000000 0.000000
vn 1.000000 0.000000 0.000000
vn 0.000000 0.000000 -1.000000
vn 0.000000 0.000000 -1.000000
vn 0.000000 0.000000 -1.000000
vn 0.000000 0.000000 -1.000000
vn -1.000000 0.000000 0.000000
vn -1.000000 0.000000 0.000000
vn -1.000000 0.000000 0.000000
vn -1.000000 0.000000 0.000000
vn 0.000000 0.000000 1.000000
vn 0.000000 0.000000 1.000000
vn 0.000000 0.000000 1.000000
vn 0.000000 0.000000 1.000000
vn 1.000000 0.000000 0.000000
vn 1.000000 0.000000 0.000000
vn 1.000000 0.000000 0.000000
vn 1.000000 0.000000 0.000000
vn 0.000000 -1.000000 0.000000
vn 0.000000 -1.000000 0.000000
vn 0.000000 -1.000000 0.000000
vn 0.000000 -1.000000 0.000000
vn -1.000000 0.000000 0.000000
vn -1.000000 0.000000 0.000000
vn -1.000000 0.000000 0.000000
vn -1.000000 0.000000 0.000000
vn 0.000000 1.000000 0.000000
vn 0.000000 1.000000 0.000000
vn 0.000000 1.000000 0.000000
vn 0.000000 1.000000 0.000000
vn 1.000000 0.000000 0.000000
vn 1.000000 0.000000 0.000000
vn 1.000000 0.000000 0.000000
vn 1.000000 0.000000 0.000000
vn 0.000000 0.000000 1.000000
vn 0.000000 0.000000 1.000000
vn 0.000000 0.000000 1.000000
vn 0.000000 0.000000 1.000000
vn -1.000000 0.000000 0.000000
vn -1.000000 0.000000 0.000000
vn -1.000000 0.000000 0.000000
vn -1.000000 0.000000 0.000000
vn 0.000000 0.000000 -1.000000
vn 0.000000 0.000000 -1.000000
vn 0.000000 0.000000 -1.000000
vn 0.000000 0.000000 -1.000000
vn 1.000000 0.000000 0.000000
vn 1.000000 0.000000 0.000000
vn 1.000000 0.000000 0.000000
vn 1.000000 0.000000 0.000000
vn 0.000000 1.000000 0.000000
vn 0.000000 1.000000 0.000000
vn 0.000000 1.000000 0.000000
vn 0.000000 1.000000 0.000000
vn 0.000000 0.000000 1.000000
vn 0.000000 0.000000 1.000000
vn 0.000000 0.000000 1.000000
vn 0.000000 0.000000 1.000000
vn 0.000000 -1.000000 0.000000
vn 0.000000 -1.000000 0.000000
vn 0.000000 -1.000000 0.000000
vn 0.000000 -1.000000 0.000000
vn 0.000000 0.000000 -1.000000
vn 0.000000 0.000000 -1.000000
vn 0.000000 0.000000 -1.000000
vn 0.000000 0.000000 -1.000000
vn 0.000000 1.000000 0.000000
vn 0.000000 1.000000 0.000000
vn 0.000000 1.000000 0.000000
vn 0.000000 1.000000 0.000000
vn 0.000000 0.000000 -1.000000
vn 0.000000 0.000000 -1.000000
vn 0.000000 0.000000 -1.000000
vn 0.000000 0.000000 -1.000000
vn 0.000000 -1.000000 0.000000
vn 0.000000 -1.000000 0.000000
vn 0.000000 -1.000000 0.000000
vn 0.000000 -1.000000 0.000000
vn 0.000000 0.000000 1.000000
vn 0.000000 0.000000 1.000000
vn 0.000000 0.000000 1.000000
vn 0.000000 0.000000 1.000000
s off
g pCube1
usemtl Maya_Lambert1SG
f 89/281/169 90/282/170 91/283/171 92/284/172
f 93/225/173 94/226/174 95/227/175 96/228/176
f 97/285/177 98/286/178 99/287/179 100/288/180
f 101/229/181 102/230/182 103/231/183 104/232/184
f 106/169/185 105/170/186 107/171/187 108/172/188
f 109/173/189 110/174/190 111/175/191 112/176/192
f 57/347/193 58/290/194 66/291/195 65/292/196
f 58/290/197 60/293/198 67/294/199 66/291/200
f 60/293/201 59/295/202 68/296/203 67/294/204
f 59/295/205 57/289/206 65/348/207 68/296/208
s 1
f 59/345/209 60/234/210 70/235/211 69/236/212
f 60/234/213 62/237/214 71/238/215 70/235/216
f 62/237/214 61/239/217 72/240/218 71/238/215
f 61/239/217 59/233/209 69/346/212 72/240/218
s 3
f 61/343/219 62/298/220 74/299/221 73/300/222
f 62/298/220 64/301/223 75/302/224 74/299/221
f 64/301/223 63/303/225 76/304/226 75/302/224
f 63/303/225 61/297/219 73/344/222 76/304/226
s 4
f 63/337/227 64/242/228 78/243/229 77/244/230
f 64/242/228 58/245/231 79/246/232 78/243/229
f 58/245/231 57/247/233 80/248/234 79/246/232
f 57/247/233 63/241/227 77/342/230 80/248/234
s 5
f 58/177/235 64/178/236 81/179/237 82/180/238
f 64/178/236 62/181/239 83/182/240 81/179/237
f 62/181/239 60/183/241 84/184/242 83/182/240
f 60/183/241 58/340/235 82/341/238 84/184/242
s 6
f 63/185/243 57/186/244 86/187/245 85/188/246
f 57/186/244 59/189/247 87/190/248 86/187/245
f 59/189/247 61/191/249 88/192/250 87/190/248
f 61/191/249 63/338/243 85/339/246 88/192/250
s off
f 65/249/251 66/250/252 90/251/253 89/252/254
f 66/193/255 67/194/256 91/195/257 90/196/258
f 67/253/259 68/254/260 92/255/261 91/256/262
f 68/197/263 65/198/264 89/199/265 92/200/266
f 69/305/267 70/306/268 94/307/269 93/308/270
f 70/201/271 71/202/272 95/203/273 94/204/274
f 71/309/275 72/310/276 96/311/277 95/312/278
f 72/205/279 69/206/280 93/207/281 96/208/282
f 73/257/283 74/258/284 98/259/285 97/260/286
f 74/209/287 75/210/288 99/211/289 98/212/290
f 75/261/291 76/262/292 100/263/293 99/264/294
f 76/213/295 73/214/296 97/215/297 100/216/298
f 77/313/299 78/314/300 102/315/301 101/316/302
f 78/217/303 79/218/304 103/219/305 102/220/306
f 79/317/307 80/318/308 104/319/309 103/320/310
f 80/221/311 77/222/312 101/223/313 104/224/314
f 82/265/315 81/266/316 105/267/317 106/268/318
f 81/321/319 83/322/320 107/323/321 105/324/322
f 83/269/323 84/270/324 108/271/325 107/272/326
f 84/325/327 82/326/328 106/327/329 108/328/330
f 85/273/331 86/274/332 110/275/333 109/276/334
f 86/329/335 87/330/336 111/331/337 110/332/338
f 87/277/339 88/278/340 112/279/341 111/280/342
f 88/333/343 85/334/344 109/335/345 112/336/346
g default
v 73.659069 24.469992 -39.838497
v 77.885252 33.533070 -39.838497
v -77.885252 95.136270 -39.838497
v -73.659069 104.199348 -39.838497
v -77.885252 95.136270 -49.838497
v -73.659069 104.199348 -49.838497
v 73.659069 24.469992 -49.838497
v 77.885252 33.533070 -49.838497
vt 0.906748 0.000004
vt 0.925509 0.000005
vt 0.925495 0.313713
vt 0.906734 0.313712
vt 0.632838 0.924889
vt 0.632838 0.943651
vt 0.319130 0.943636
vt 0.319131 0.924875
vt 0.491359 0.018773
vt 0.510120 0.018773
vt 0.510120 0.037534
vt 0.491359 0.037534
vt 0.040524 0.018783
vt 0.059286 0.018783
vt 0.059286 0.037544
vt 0.040524 0.037544
vt 0.946905 0.924904
vt 0.946904 0.943665
vt 0.633194 0.943650
vt 0.633195 0.924889
vt 0.313709 0.928673
vt 0.313709 0.947434
vt 0.000000 0.947422
vt 0.000001 0.928660
vn 0.000000 0.000000 1.000000
vn 0.000000 0.000000 1.000000
vn 0.000000 0.000000 1.000000
vn 0.000000 0.000000 1.000000
vn -0.906308 0.422618 0.000000
vn -0.906308 0.422618 0.000000
vn -0.906308 0.422618 0.000000
vn -0.906308 0.422618 0.000000
vn 0.000000 0.000000 -1.000000
vn 0.000000 0.000000 -1.000000
vn 0.000000 0.000000 -1.000000
vn 0.000000 0.000000 -1.000000
vn 0.906308 -0.422618 0.000000
vn 0.906308 -0.422618 0.000000
vn 0.906308 -0.422618 0.000000
vn 0.906308 -0.422618 0.000000
vn 0.422618 0.906308 0.000000
vn 0.422618 0.906308 0.000000
vn 0.422618 0.906308 0.000000
vn 0.422618 0.906308 0.000000
vn -0.422618 -0.906308 0.000000
vn -0.422618 -0.906308 0.000000
vn -0.422618 -0.906308 0.000000
vn -0.422618 -0.906308 0.000000
s off
g group pasted__pCube3
usemtl Maya_Lambert24SG
f 113/365/347 114/366/348 116/367/349 115/368/350
f 115/357/351 116/358/352 118/359/353 117/360/354
f 117/369/355 118/370/356 120/371/357 119/372/358
f 119/361/359 120/362/360 114/363/361 113/364/362
f 114/349/363 120/350/364 118/351/365 116/352/366
f 119/353/367 113/354/368 115/355/369 117/356/370
g default
v 99.648581 24.357614 47.959048
v 99.648581 17.286546 40.887980
v 99.648581 102.713454 -30.396791
v 99.648581 95.642386 -37.467859
v 89.648581 102.713454 -30.396791
v 89.648581 95.642386 -37.467859
v 89.648581 24.357614 47.959048
v 89.648581 17.286546 40.887980
vt 0.729440 0.687533
vt 0.748201 0.687530
vt 0.748228 0.895428
vt 0.729467 0.895431
vt 0.648601 0.384499
vt 0.648604 0.403260
vt 0.440706 0.403287
vt 0.440703 0.384526
vt 0.222884 0.000004
vt 0.241646 0.000004
vt 0.241646 0.018765
vt 0.222884 0.018766
vt 0.369785 0.018785
vt 0.388547 0.018785
vt 0.388547 0.037547
vt 0.369785 0.037547
vt 0.537158 0.759807
vt 0.537161 0.778569
vt 0.329263 0.778596
vt 0.329261 0.759835
vt 0.648601 0.365736
vt 0.648603 0.384497
vt 0.440706 0.384525
vt 0.440703 0.365764
vn 1.000000 0.000000 0.000000
vn 1.000000 0.000000 0.000000
vn 1.000000 0.000000 0.000000
vn 1.000000 0.000000 0.000000
vn 0.000000 0.707107 -0.707107
vn 0.000000 0.707107 -0.707107
vn 0.000000 0.707107 -0.707107
vn 0.000000 0.707107 -0.707107
vn -1.000000 0.000000 -0.000000
vn -1.000000 0.000000 -0.000000
vn -1.000000 0.000000 -0.000000
vn -1.000000 0.000000 -0.000000
vn 0.000000 -0.707107 0.707107
vn 0.000000 -0.707107 0.707107
vn 0.000000 -0.707107 0.707107
vn 0.000000 -0.707107 0.707107
vn 0.000000 -0.707107 -0.707107
vn 0.000000 -0.707107 -0.707107
vn 0.000000 -0.707107 -0.707107
vn 0.000000 -0.707107 -0.707107
vn 0.000000 0.707107 0.707107
vn 0.000000 0.707107 0.707107
vn 0.000000 0.707107 0.707107
vn 0.000000 0.707107 0.707107
s off
g pasted__pasted__pCube2 pasted__group group1
usemtl Maya_Lambert27SG
f 121/389/371 122/390/372 124/391/373 123/392/374
f 123/381/375 124/382/376 126/383/377 125/384/378
f 125/393/379 126/394/380 128/395/381 127/396/382
f 127/385/383 128/386/384 122/387/385 121/388/386
f 122/373/387 128/374/388 126/375/389 124/376/390
f 127/377/391 121/378/392 123/379/393 125/380/394
g default
v 99.490442 19.462226 -34.192623
v 99.490442 26.533294 -41.263690
v 99.490442 102.136046 48.481198
v 99.490442 109.207114 41.410130
v 89.490442 102.136046 48.481198
v 89.490442 109.207114 41.410130
v 89.490442 19.462226 -34.192623
v 89.490442 26.533294 -41.263690
vt 0.937127 0.493359
vt 0.955889 0.493358
vt 0.955909 0.712712
vt 0.937148 0.712714
vt 0.538484 0.741045
vt 0.538486 0.759807
vt 0.319132 0.759827
vt 0.319130 0.741066
vt 0.243147 0.000004
vt 0.261908 0.000004
vt 0.261908 0.018765
vt 0.243147 0.018766
vt 0.000000 0.018787
vt 0.018761 0.018787
vt 0.018761 0.037549
vt 0.000000 0.037549
vt 0.599271 0.267334
vt 0.599272 0.286095
vt 0.379918 0.286116
vt 0.379916 0.267354
vt 0.219354 0.000004
vt 0.219356 0.018765
vt 0.000002 0.018787
vt 0.000000 0.000026
vn 1.000000 0.000000 0.000000
vn 1.000000 0.000000 0.000000
vn 1.000000 0.000000 0.000000
vn 1.000000 0.000000 0.000000
vn 0.000000 0.707107 0.707107
vn 0.000000 0.707107 0.707107
vn 0.000000 0.707107 0.707107
vn 0.000000 0.707107 0.707107
vn -1.000000 0.000000 0.000000
vn -1.000000 0.000000 0.000000
vn -1.000000 0.000000 0.000000
vn -1.000000 0.000000 0.000000
vn 0.000000 -0.707107 -0.707107
vn 0.000000 -0.707107 -0.707107
vn 0.000000 -0.707107 -0.707107
vn 0.000000 -0.707107 -0.707107
vn 0.000000 0.707107 -0.707107
vn 0.000000 0.707107 -0.707107
vn 0.000000 0.707107 -0.707107
vn 0.000000 0.707107 -0.707107
vn 0.000000 -0.707107 0.707107
vn 0.000000 -0.707107 0.707107
vn 0.000000 -0.707107 0.707107
vn 0.000000 -0.707107 0.707107
s off
g pasted__group group1 pasted__pasted__pCube3
usemtl Maya_Lambert28SG
f 129/413/395 130/414/396 132/415/397 131/416/398
f 131/405/399 132/406/400 134/407/401 133/408/402
f 133/417/403 134/418/404 136/419/405 135/420/406
f 135/409/407 136/410/408 130/411/409 129/412/410
f 130/397/411 136/398/412 134/399/413 132/400/414
f 135/401/415 129/402/416 131/403/417 133/404/418
g default
v -78.007157 11.988322 -30.383347
v -73.780974 11.988322 -39.446425
v 75.375518 11.988322 41.140169
v 79.601701 11.988322 32.077091
v 75.375518 21.988322 41.140169
v 79.601701 21.988322 32.077091
v -78.007157 21.988322 -30.383347
v -73.780974 21.988322 -39.446425
vt 0.886478 0.317946
vt 0.905239 0.317946
vt 0.905233 0.635460
vt 0.886472 0.635459
vt 0.317514 0.778560
vt 0.317514 0.797321
vt 0.000000 0.797315
vt 0.000000 0.778554
vt 0.511621 0.018771
vt 0.530382 0.018771
vt 0.530382 0.037532
vt 0.511621 0.037532
vt 0.410310 0.018781
vt 0.429071 0.018781
vt 0.429071 0.037542
vt 0.410310 0.037542
vt 0.317516 0.797321
vt 0.317516 0.816083
vt 0.000000 0.816076
vt 0.000000 0.797315
vt 0.317515 0.816083
vt 0.317514 0.834844
vt 0.000000 0.834840
vt 0.000000 0.816078
vn 0.000000 -1.000000 0.000000
vn 0.000000 -1.000000 0.000000
vn 0.000000 -1.000000 0.000000
vn 0.000000 -1.000000 0.000000
vn 0.906308 0.000000 0.422618
vn 0.906308 0.000000 0.422618
vn 0.906308 0.000000 0.422618
vn 0.906308 0.000000 0.422618
vn 0.000000 1.000000 0.000000
vn 0.000000 1.000000 0.000000
vn 0.000000 1.000000 0.000000
vn 0.000000 1.000000 0.000000
vn -0.906308 -0.000000 -0.422618
vn -0.906308 -0.000000 -0.422618
vn -0.906308 -0.000000 -0.422618
vn -0.906308 -0.000000 -0.422618
vn 0.422618 0.000000 -0.906308
vn 0.422618 0.000000 -0.906308
vn 0.422618 0.000000 -0.906308
vn 0.422618 0.000000 -0.906308
vn -0.422618 0.000000 0.906308
vn -0.422618 0.000000 0.906308
vn -0.422618 0.000000 0.906308
vn -0.422618 0.000000 0.906308
s off
g pasted__pasted__pasted__group pasted__pasted__group1 pasted__group2 group3 pasted__pasted__pasted__pasted__pCube5
usemtl Maya_Lambert20SG
f 137/437/419 138/438/420 140/439/421 139/440/422
f 139/429/423 140/430/424 142/431/425 141/432/426
f 141/441/427 142/442/428 144/443/429 143/444/430
f 143/433/431 144/434/432 138/435/433 137/436/434
f 138/421/435 144/422/436 142/423/437 140/424/438
f 143/425/439 137/426/440 139/427/441 141/428/442
g default
v -78.218505 11.846114 41.188134
v -82.444688 11.846114 32.125056
v 75.369892 11.846114 -30.431312
v 71.143709 11.846114 -39.494390
v 75.369892 21.846114 -30.431312
v 71.143709 21.846114 -39.494390
v -78.218505 21.846114 41.188134
v -82.444688 21.846114 32.125056
vt 0.886490 0.000004
vt 0.905252 0.000005
vt 0.905233 0.317946
vt 0.886472 0.317945
vt 0.510432 0.722287
vt 0.510431 0.741048
vt 0.192491 0.741029
vt 0.192492 0.722268
vt 0.572407 0.000004
vt 0.591169 0.000004
vt 0.591169 0.018765
vt 0.572408 0.018766
vt 0.101311 0.018777
vt 0.120072 0.018777
vt 0.120072 0.037538
vt 0.101311 0.037538
vt 0.317941 0.741037
vt 0.317940 0.759798
vt 0.000000 0.759780
vt 0.000001 0.741018
vt 0.317941 0.759799
vt 0.317940 0.778560
vt 0.000000 0.778543
vt 0.000001 0.759782
vn 0.000000 -1.000000 0.000000
vn 0.000000 -1.000000 0.000000
vn 0.000000 -1.000000 0.000000
vn 0.000000 -1.000000 0.000000
vn 0.906308 0.000000 -0.422618
vn 0.906308 0.000000 -0.422618
vn 0.906308 0.000000 -0.422618
vn 0.906308 0.000000 -0.422618
vn 0.000000 1.000000 -0.000000
vn 0.000000 1.000000 -0.000000
vn 0.000000 1.000000 -0.000000
vn 0.000000 1.000000 -0.000000
vn -0.906308 -0.000000 0.422618
vn -0.906308 -0.000000 0.422618
vn -0.906308 -0.000000 0.422618
vn -0.906308 -0.000000 0.422618
vn -0.422618 0.000000 -0.906308
vn -0.422618 0.000000 -0.906308
vn -0.422618 0.000000 -0.906308
vn -0.422618 0.000000 -0.906308
vn 0.422618 0.000000 0.906308
vn 0.422618 0.000000 0.906308
vn 0.422618 0.000000 0.906308
vn 0.422618 0.000000 0.906308
s off
g pasted__pasted__pasted__group pasted__pasted__group1 pasted__group2 group3 pasted__pasted__pasted__pasted__pCube4
usemtl Maya_Lambert19SG
f 145/461/443 146/462/444 148/463/445 147/464/446
f 147/453/447 148/454/448 150/455/449 149/456/450
f 149/465/451 150/466/452 152/467/453 151/468/454
f 151/457/455 152/458/456 146/459/457 145/460/458
f 146/445/459 152/446/460 150/447/461 148/448/462
f 151/449/463 145/450/464 147/451/465 149/452/466
