# This file uses centimeters as units for non-parametric coordinates.

mtllib Crate1.mtl
g default
v -50.000000 11.699732 50.000000
v 50.000000 11.699732 50.000000
v -50.000000 111.699736 50.000000
v 50.000000 111.699736 50.000000
v -50.000000 111.699736 -50.000000
v 50.000000 111.699736 -50.000000
v -50.000000 11.699732 -50.000000
v 50.000000 11.699732 -50.000000
v -35.000000 26.699732 50.000000
v 35.000000 26.699732 50.000000
v 35.000000 96.699736 50.000000
v -35.000000 96.699736 50.000000
v -35.000000 111.699736 35.000000
v 35.000000 111.699736 35.000000
v 35.000000 111.699736 -35.000000
v -35.000000 111.699736 -35.000000
v -35.000000 96.699736 -50.000000
v 35.000000 96.699736 -50.000000
v 35.000000 26.699732 -50.000000
v -35.000000 26.699732 -50.000000
v -35.000000 11.699732 -35.000000
v 35.000000 11.699732 -35.000000
v 35.000000 11.699732 35.000000
v -35.000000 11.699732 35.000000
v 50.000000 26.699732 -35.000000
v 50.000000 26.699732 35.000000
v 50.000000 96.699736 -35.000000
v 50.000000 96.699736 35.000000
v -50.000000 26.699732 -35.000000
v -50.000000 26.699732 35.000000
v -50.000000 96.699736 35.000000
v -50.000000 96.699736 -35.000000
v -35.000000 26.699732 40.000000
v 35.000000 26.699732 40.000000
v 35.000000 96.699736 40.000000
v -35.000000 96.699736 40.000000
v -35.000000 101.699736 35.000000
v 35.000000 101.699736 35.000000
v 35.000000 101.699736 -35.000000
v -35.000000 101.699736 -35.000000
v -35.000000 96.699736 -40.000000
v 35.000000 96.699736 -40.000000
v 35.000000 26.699732 -40.000000
v -35.000000 26.699732 -40.000000
v -35.000000 21.699732 -35.000000
v 35.000000 21.699732 -35.000000
v 35.000000 21.699732 35.000000
v -35.000000 21.699732 35.000000
v 40.000000 26.699732 -35.000000
v 40.000000 26.699732 35.000000
v 40.000000 96.699736 -35.000000
v 40.000000 96.699736 35.000000
v -40.000000 26.699732 -35.000000
v -40.000000 26.699732 35.000000
v -40.000000 96.699736 35.000000
v -40.000000 96.699736 -35.000000
vt 0.789564 0.551542
vt 0.979156 0.551542
vt 0.979156 0.741134
vt 0.789564 0.741134
vt 0.808415 0.745126
vt 0.998008 0.745126
vt 0.998008 0.934718
vt 0.808415 0.934718
vt 0.000000 0.239263
vt 0.239245 0.239263
vt 0.203358 0.275150
vt 0.035887 0.275150
vt 0.239245 0.478508
vt 0.203358 0.442621
vt 0.000000 0.478508
vt 0.035887 0.442621
vt 0.000000 0.000018
vt 0.239245 0.000018
vt 0.203358 0.035905
vt 0.035887 0.035905
vt 0.239245 0.239263
vt 0.203358 0.203376
vt 0.000000 0.239263
vt 0.035887 0.203376
vt 0.769060 0.745126
vt 0.769060 0.934718
vt 0.741976 0.934718
vt 0.741976 0.745126
vt 0.675536 0.934718
vt 0.675536 0.745126
vt 0.702620 0.745126
vt 0.702620 0.934718
vt 0.636180 0.745126
vt 0.636180 0.934718
vt 0.609096 0.934718
vt 0.609096 0.745126
vt 0.569740 0.745126
vt 0.569740 0.934718
vt 0.542656 0.934718
vt 0.542656 0.745126
vt 0.476216 0.934718
vt 0.476216 0.745126
vt 0.503301 0.745126
vt 0.503301 0.934718
vt 0.436861 0.745126
vt 0.436861 0.934718
vt 0.409776 0.934718
vt 0.409776 0.745126
vt 0.343336 0.934718
vt 0.343336 0.745126
vt 0.370421 0.745126
vt 0.370421 0.934718
vt 0.276896 0.934718
vt 0.276896 0.745126
vt 0.303981 0.745126
vt 0.303981 0.934718
vt 0.199031 0.551542
vt 0.388624 0.551542
vt 0.388624 0.741134
vt 0.199031 0.741134
vt 0.592719 0.551542
vt 0.782312 0.551542
vt 0.782312 0.741134
vt 0.592719 0.741134
vt 0.243621 0.239263
vt 0.482865 0.239263
vt 0.446979 0.275150
vt 0.279507 0.275150
vt 0.482865 0.478508
vt 0.446979 0.442621
vt 0.243621 0.478508
vt 0.279507 0.442621
vt 0.243621 0.000018
vt 0.482865 0.000018
vt 0.446979 0.035905
vt 0.279507 0.035905
vt 0.482865 0.239263
vt 0.446979 0.203376
vt 0.243621 0.239263
vt 0.279507 0.203376
vt 0.775195 0.934718
vt 0.775195 0.745126
vt 0.802280 0.745126
vt 0.802280 0.934718
vt 0.735840 0.745126
vt 0.735840 0.934718
vt 0.708756 0.934718
vt 0.708756 0.745126
vt 0.509436 0.934718
vt 0.509436 0.745126
vt 0.536521 0.745126
vt 0.536521 0.934718
vt 0.470081 0.745126
vt 0.470081 0.934718
vt 0.442996 0.934718
vt 0.442996 0.745126
vt 0.270761 0.745126
vt 0.270761 0.934718
vt 0.243676 0.934718
vt 0.243676 0.745126
vt 0.204321 0.745126
vt 0.204321 0.934718
vt 0.177236 0.934718
vt 0.177236 0.745126
vt 0.110796 0.934718
vt 0.110796 0.745126
vt 0.137881 0.745126
vt 0.137881 0.934718
vt 0.044356 0.934718
vt 0.044356 0.745126
vt 0.071441 0.745126
vt 0.071441 0.934718
vt 0.001992 0.551542
vt 0.191585 0.551542
vt 0.191585 0.741134
vt 0.001992 0.741134
vt 0.395875 0.741134
vt 0.395875 0.551542
vt 0.585468 0.551542
vt 0.585468 0.741134
vt 0.000000 0.478508
vt 0.239245 0.478508
vt 0.203358 0.514395
vt 0.035887 0.514395
vt 0.239245 0.717753
vt 0.203358 0.681866
vt 0.000000 0.717753
vt 0.035887 0.681866
vt 0.475357 0.478508
vt 0.714602 0.478508
vt 0.678715 0.514395
vt 0.511244 0.514395
vt 0.714602 0.717753
vt 0.678715 0.681866
vt 0.475357 0.717753
vt 0.511244 0.681866
vt 0.642316 0.934718
vt 0.642316 0.745126
vt 0.669400 0.745126
vt 0.669400 0.934718
vt 0.602960 0.745126
vt 0.602960 0.934718
vt 0.575876 0.934718
vt 0.575876 0.745126
vt 0.376556 0.934718
vt 0.376556 0.745126
vt 0.403641 0.745126
vt 0.403641 0.934718
vt 0.337201 0.745126
vt 0.337201 0.934718
vt 0.310116 0.934718
vt 0.310116 0.745126
vt 0.237541 0.745126
vt 0.237541 0.934718
vt 0.210456 0.934718
vt 0.210456 0.745126
vt 0.171101 0.745126
vt 0.171101 0.934718
vt 0.144016 0.934718
vt 0.144016 0.745126
vt 0.077576 0.934718
vt 0.077576 0.745126
vt 0.104661 0.745126
vt 0.104661 0.934718
vt 0.011136 0.934718
vt 0.011136 0.745126
vt 0.038221 0.745126
vt 0.038221 0.934718
vt 0.243621 0.000018
vt 0.000000 0.000018
vt 0.035887 0.035905
vt 0.000000 0.239263
vt 0.035887 0.275150
vt 0.279507 0.035905
vt 0.475357 0.478508
vt 0.511244 0.514395
vt 0.243621 0.239263
vt 0.279507 0.275150
vt 0.000000 0.478508
vt 0.035887 0.514395
vn 0.000000 0.000000 1.000000
vn 0.000000 0.000000 1.000000
vn 0.000000 0.000000 1.000000
vn 0.000000 0.000000 1.000000
vn 0.000000 1.000000 0.000000
vn 0.000000 1.000000 0.000000
vn 0.000000 1.000000 0.000000
vn 0.000000 1.000000 0.000000
vn 0.000000 0.000000 -1.000000
vn 0.000000 0.000000 -1.000000
vn 0.000000 0.000000 -1.000000
vn 0.000000 0.000000 -1.000000
vn 0.000000 -1.000000 0.000000
vn 0.000000 -1.000000 0.000000
vn 0.000000 -1.000000 0.000000
vn 0.000000 -1.000000 0.000000
vn 1.000000 0.000000 0.000000
vn 1.000000 0.000000 0.000000
vn 1.000000 0.000000 0.000000
vn 1.000000 0.000000 0.000000
vn -1.000000 0.000000 0.000000
vn -1.000000 0.000000 0.000000
vn -1.000000 0.000000 0.000000
vn -1.000000 0.000000 0.000000
vn 0.000000 0.000000 1.000000
vn 0.000000 0.000000 1.000000
vn 0.000000 0.000000 1.000000
vn 0.000000 0.000000 1.000000
vn 0.000000 0.000000 1.000000
vn 0.000000 0.000000 1.000000
vn 0.000000 0.000000 1.000000
vn 0.000000 0.000000 1.000000
vn 0.000000 0.000000 1.000000
vn 0.000000 0.000000 1.000000
vn 0.000000 0.000000 1.000000
vn 0.000000 0.000000 1.000000
vn 0.000000 0.000000 1.000000
vn 0.000000 0.000000 1.000000
vn 0.000000 0.000000 1.000000
vn 0.000000 0.000000 1.000000
vn 0.000000 1.000000 -0.000000
vn 0.000000 1.000000 -0.000000
vn 0.000000 1.000000 -0.000000
vn 0.000000 1.000000 -0.000000
vn 0.000000 1.000000 0.000000
vn 0.000000 1.000000 0.000000
vn 0.000000 1.000000 0.000000
vn 0.000000 1.000000 0.000000
vn 0.000000 1.000000 0.000000
vn 0.000000 1.000000 0.000000
vn 0.000000 0.000000 -1.000000
vn 0.000000 0.000000 -1.000000
vn 0.000000 0.000000 -1.000000
vn 0.000000 0.000000 -1.000000
vn 0.000000 0.000000 -1.000000
vn 0.000000 0.000000 -1.000000
vn 0.000000 0.000000 -1.000000
vn 0.000000 0.000000 -1.000000
vn 0.000000 -1.000000 0.000000
vn 0.000000 -1.000000 0.000000
vn 0.000000 -1.000000 0.000000
vn 0.000000 -1.000000 0.000000
vn 0.000000 -1.000000 0.000000
vn 0.000000 -1.000000 0.000000
vn 0.000000 -1.000000 0.000000
vn 0.000000 -1.000000 0.000000
vn 1.000000 0.000000 0.000000
vn 1.000000 0.000000 0.000000
vn 1.000000 0.000000 0.000000
vn 1.000000 0.000000 0.000000
vn 1.000000 0.000000 0.000000
vn 1.000000 0.000000 0.000000
vn 1.000000 0.000000 0.000000
vn 1.000000 0.000000 0.000000
vn -1.000000 0.000000 0.000000
vn -1.000000 0.000000 0.000000
vn -1.000000 0.000000 0.000000
vn -1.000000 0.000000 0.000000
vn -1.000000 0.000000 0.000000
vn -1.000000 0.000000 0.000000
vn -1.000000 0.000000 0.000000
vn -1.000000 0.000000 0.000000
vn 0.000000 1.000000 0.000000
vn 0.000000 1.000000 0.000000
vn 0.000000 1.000000 0.000000
vn 0.000000 1.000000 0.000000
vn -1.000000 0.000000 0.000000
vn -1.000000 0.000000 0.000000
vn -1.000000 0.000000 0.000000
vn -1.000000 0.000000 0.000000
vn 0.000000 -1.000000 0.000000
vn 0.000000 -1.000000 0.000000
vn 0.000000 -1.000000 0.000000
vn 0.000000 -1.000000 0.000000
vn 1.000000 0.000000 0.000000
vn 1.000000 0.000000 0.000000
vn 1.000000 0.000000 0.000000
vn 1.000000 0.000000 0.000000
vn 0.000000 0.000000 -1.000000
vn 0.000000 0.000000 -1.000000
vn 0.000000 0.000000 -1.000000
vn 0.000000 0.000000 -1.000000
vn -1.000000 0.000000 0.000000
vn -1.000000 0.000000 0.000000
vn -1.000000 0.000000 0.000000
vn -1.000000 0.000000 0.000000
vn 0.000000 0.000000 1.000000
vn 0.000000 0.000000 1.000000
vn 0.000000 0.000000 1.000000
vn 0.000000 0.000000 1.000000
vn 1.000000 0.000000 0.000000
vn 1.000000 0.000000 0.000000
vn 1.000000 0.000000 0.000000
vn 1.000000 0.000000 0.000000
vn 0.000000 -1.000000 0.000000
vn 0.000000 -1.000000 0.000000
vn 0.000000 -1.000000 0.000000
vn 0.000000 -1.000000 0.000000
vn -1.000000 0.000000 0.000000
vn -1.000000 0.000000 0.000000
vn -1.000000 0.000000 0.000000
vn -1.000000 0.000000 0.000000
vn 0.000000 1.000000 0.000000
vn 0.000000 1.000000 0.000000
vn 0.000000 1.000000 0.000000
vn 0.000000 1.000000 0.000000
vn 1.000000 0.000000 0.000000
vn 1.000000 0.000000 0.000000
vn 1.000000 0.000000 0.000000
vn 1.000000 0.000000 0.000000
vn 0.000000 0.000000 1.000000
vn 0.000000 0.000000 1.000000
vn 0.000000 0.000000 1.000000
vn 0.000000 0.000000 1.000000
vn -1.000000 0.000000 0.000000
vn -1.000000 0.000000 0.000000
vn -1.000000 0.000000 0.000000
vn -1.000000 0.000000 0.000000
vn 0.000000 0.000000 -1.000000
vn 0.000000 0.000000 -1.000000
vn 0.000000 0.000000 -1.000000
vn 0.000000 0.000000 -1.000000
vn 1.000000 0.000000 0.000000
vn 1.000000 0.000000 0.000000
vn 1.000000 0.000000 0.000000
vn 1.000000 0.000000 0.000000
vn 0.000000 1.000000 0.000000
vn 0.000000 1.000000 0.000000
vn 0.000000 1.000000 0.000000
vn 0.000000 1.000000 0.000000
vn 0.000000 0.000000 1.000000
vn 0.000000 0.000000 1.000000
vn 0.000000 0.000000 1.000000
vn 0.000000 0.000000 1.000000
vn 0.000000 -1.000000 0.000000
vn 0.000000 -1.000000 0.000000
vn 0.000000 -1.000000 0.000000
vn 0.000000 -1.000000 0.000000
vn 0.000000 0.000000 -1.000000
vn 0.000000 0.000000 -1.000000
vn 0.000000 0.000000 -1.000000
vn 0.000000 0.000000 -1.000000
vn 0.000000 1.000000 0.000000
vn 0.000000 1.000000 0.000000
vn 0.000000 1.000000 0.000000
vn 0.000000 1.000000 0.000000
vn 0.000000 0.000000 -1.000000
vn 0.000000 0.000000 -1.000000
vn 0.000000 0.000000 -1.000000
vn 0.000000 0.000000 -1.000000
vn 0.000000 -1.000000 0.000000
vn 0.000000 -1.000000 0.000000
vn 0.000000 -1.000000 0.000000
vn 0.000000 -1.000000 0.000000
vn 0.000000 0.000000 1.000000
vn 0.000000 0.000000 1.000000
vn 0.000000 0.000000 1.000000
vn 0.000000 0.000000 1.000000
s off
g pCube1
usemtl Maya_Lambert13SG
f 33/113/1 34/114/2 35/115/3 36/116/4
f 37/57/5 38/58/6 39/59/7 40/60/8
f 41/117/9 42/118/10 43/119/11 44/120/12
f 45/61/13 46/62/14 47/63/15 48/64/16
f 50/1/17 49/2/18 51/3/19 52/4/20
f 53/5/21 54/6/22 55/7/23 56/8/24
f 1/179/25 2/122/26 10/123/27 9/124/28
f 2/122/29 4/125/30 11/126/31 10/123/32
f 4/125/33 3/127/34 12/128/35 11/126/36
f 3/127/37 1/121/38 9/180/39 12/128/40
s 1
f 3/177/41 4/66/42 14/67/43 13/68/44
f 4/66/45 6/69/46 15/70/47 14/67/48
f 6/69/46 5/71/49 16/72/50 15/70/47
f 5/71/49 3/65/41 13/178/44 16/72/50
s 3
f 5/175/51 6/130/52 18/131/53 17/132/54
f 6/130/52 8/133/55 19/134/56 18/131/53
f 8/133/55 7/135/57 20/136/58 19/134/56
f 7/135/57 5/129/51 17/176/54 20/136/58
s 4
f 7/169/59 8/74/60 22/75/61 21/76/62
f 8/74/60 2/77/63 23/78/64 22/75/61
f 2/77/63 1/79/65 24/80/66 23/78/64
f 1/79/65 7/73/59 21/174/62 24/80/66
s 5
f 2/9/67 8/10/68 25/11/69 26/12/70
f 8/10/68 6/13/71 27/14/72 25/11/69
f 6/13/71 4/15/73 28/16/74 27/14/72
f 4/15/73 2/172/67 26/173/70 28/16/74
s 6
f 7/17/75 1/18/76 30/19/77 29/20/78
f 1/18/76 3/21/79 31/22/80 30/19/77
f 3/21/79 5/23/81 32/24/82 31/22/80
f 5/23/81 7/170/75 29/171/78 32/24/82
s off
f 9/81/83 10/82/84 34/83/85 33/84/86
f 10/25/87 11/26/88 35/27/89 34/28/90
f 11/85/91 12/86/92 36/87/93 35/88/94
f 12/29/95 9/30/96 33/31/97 36/32/98
f 13/137/99 14/138/100 38/139/101 37/140/102
f 14/33/103 15/34/104 39/35/105 38/36/106
f 15/141/107 16/142/108 40/143/109 39/144/110
f 16/37/111 13/38/112 37/39/113 40/40/114
f 17/89/115 18/90/116 42/91/117 41/92/118
f 18/41/119 19/42/120 43/43/121 42/44/122
f 19/93/123 20/94/124 44/95/125 43/96/126
f 20/45/127 17/46/128 41/47/129 44/48/130
f 21/145/131 22/146/132 46/147/133 45/148/134
f 22/49/135 23/50/136 47/51/137 46/52/138
f 23/149/139 24/150/140 48/151/141 47/152/142
f 24/53/143 21/54/144 45/55/145 48/56/146
f 26/97/147 25/98/148 49/99/149 50/100/150
f 25/153/151 27/154/152 51/155/153 49/156/154
f 27/101/155 28/102/156 52/103/157 51/104/158
f 28/157/159 26/158/160 50/159/161 52/160/162
f 29/105/163 30/106/164 54/107/165 53/108/166
f 30/161/167 31/162/168 55/163/169 54/164/170
f 31/109/171 32/110/172 56/111/173 55/112/174
f 32/165/175 29/166/176 53/167/177 56/168/178
g default
v -42.713454 24.357614 50.000000
v -35.642386 17.286546 50.000000
v 35.642386 102.713454 50.000000
v 42.713454 95.642386 50.000000
v 35.642386 102.713454 40.000000
v 42.713454 95.642386 40.000000
v -42.713454 24.357614 40.000000
v -35.642386 17.286546 40.000000
vt 0.910324 0.000000
vt 0.932817 0.008152
vt 0.842484 0.257399
vt 0.819991 0.249247
vt 0.951918 0.314889
vt 0.974411 0.323041
vt 0.884078 0.572288
vt 0.861585 0.564136
vt 0.356518 0.035905
vt 0.380442 0.035905
vt 0.380442 0.059829
vt 0.356518 0.059829
vt 0.707094 0.023942
vt 0.731018 0.023942
vt 0.731018 0.047867
vt 0.707094 0.047867
vt 0.660762 0.717735
vt 0.683254 0.725887
vt 0.592921 0.975134
vt 0.570429 0.966982
vt 0.268591 0.742600
vt 0.291083 0.750752
vt 0.200752 1.000000
vt 0.178259 0.991848
vn 0.000000 0.000000 1.000000
vn 0.000000 0.000000 1.000000
vn 0.000000 0.000000 1.000000
vn 0.000000 0.000000 1.000000
vn 0.707107 0.707107 0.000000
vn 0.707107 0.707107 0.000000
vn 0.707107 0.707107 0.000000
vn 0.707107 0.707107 0.000000
vn 0.000000 0.000000 -1.000000
vn 0.000000 0.000000 -1.000000
vn 0.000000 0.000000 -1.000000
vn 0.000000 0.000000 -1.000000
vn -0.707107 -0.707107 0.000000
vn -0.707107 -0.707107 0.000000
vn -0.707107 -0.707107 0.000000
vn -0.707107 -0.707107 0.000000
vn 0.707107 -0.707107 0.000000
vn 0.707107 -0.707107 0.000000
vn 0.707107 -0.707107 0.000000
vn 0.707107 -0.707107 0.000000
vn -0.707107 0.707107 0.000000
vn -0.707107 0.707107 0.000000
vn -0.707107 0.707107 0.000000
vn -0.707107 0.707107 0.000000
s off
g pCube2
usemtl Maya_Lambert4SG
f 57/197/179 58/198/180 60/199/181 59/200/182
f 59/189/183 60/190/184 62/191/185 61/192/186
f 61/201/187 62/202/188 64/203/189 63/204/190
f 63/193/191 64/194/192 58/195/193 57/196/194
f 58/181/195 64/182/196 62/183/197 60/184/198
f 63/185/199 57/186/200 59/187/201 61/188/202
g default
v 37.801376 19.462226 49.841861
v 44.872444 26.533294 49.841861
v -44.872444 102.136046 49.841861
v -37.801376 109.207114 49.841861
v -44.872444 102.136046 39.841861
v -37.801376 109.207114 39.841861
v 37.801376 19.462226 39.841861
v 44.872444 26.533294 39.841861
vt 0.773310 0.202344
vt 0.795783 0.210548
vt 0.699858 0.473307
vt 0.677384 0.465103
vt 0.333604 0.478498
vt 0.356078 0.486702
vt 0.260152 0.749461
vt 0.237679 0.741257
vt 0.831875 0.023942
vt 0.855800 0.023942
vt 0.855800 0.047867
vt 0.831875 0.047867
vt 0.742746 0.000018
vt 0.766670 0.000018
vt 0.766670 0.023942
vt 0.742746 0.023942
vt 0.690122 0.000008
vt 0.712596 0.008212
vt 0.616670 0.270971
vt 0.594196 0.262767
vt 0.814902 0.346538
vt 0.837376 0.354742
vt 0.741452 0.617502
vt 0.718978 0.609297
vn 0.000000 0.000000 1.000000
vn 0.000000 0.000000 1.000000
vn 0.000000 0.000000 1.000000
vn 0.000000 0.000000 1.000000
vn -0.707107 0.707107 0.000000
vn -0.707107 0.707107 0.000000
vn -0.707107 0.707107 0.000000
vn -0.707107 0.707107 0.000000
vn 0.000000 0.000000 -1.000000
vn 0.000000 0.000000 -1.000000
vn 0.000000 0.000000 -1.000000
vn 0.000000 0.000000 -1.000000
vn 0.707107 -0.707107 0.000000
vn 0.707107 -0.707107 0.000000
vn 0.707107 -0.707107 0.000000
vn 0.707107 -0.707107 0.000000
vn 0.707107 0.707107 0.000000
vn 0.707107 0.707107 0.000000
vn 0.707107 0.707107 0.000000
vn 0.707107 0.707107 0.000000
vn -0.707107 -0.707107 0.000000
vn -0.707107 -0.707107 0.000000
vn -0.707107 -0.707107 0.000000
vn -0.707107 -0.707107 0.000000
s off
g pCube3
usemtl Maya_Lambert3SG
f 65/221/203 66/222/204 68/223/205 67/224/206
f 67/213/207 68/214/208 70/215/209 69/216/210
f 69/225/211 70/226/212 72/227/213 71/228/214
f 71/217/215 72/218/216 66/219/217 65/220/218
f 66/205/219 72/206/220 70/207/221 68/208/222
f 71/209/223 65/210/224 67/211/225 69/212/226
g default
v -42.713454 24.357614 -39.680357
v -35.642386 17.286546 -39.680357
v 35.642386 102.713454 -39.680357
v 42.713454 95.642386 -39.680357
v 35.642386 102.713454 -49.680357
v 42.713454 95.642386 -49.680357
v -42.713454 24.357614 -49.680357
v -35.642386 17.286546 -49.680357
vt 0.928150 0.293860
vt 0.950643 0.302012
vt 0.860310 0.551259
vt 0.837817 0.543107
vt 0.482503 0.717735
vt 0.504996 0.725887
vt 0.414663 0.975134
vt 0.392170 0.966982
vt 0.101013 0.035905
vt 0.124938 0.035905
vt 0.124938 0.059829
vt 0.101013 0.059829
vt 0.742746 0.023942
vt 0.766670 0.023942
vt 0.766670 0.047867
vt 0.742746 0.047867
vt 0.589458 0.717735
vt 0.611951 0.725887
vt 0.521618 0.975134
vt 0.499125 0.966982
vt 0.221055 0.738763
vt 0.243548 0.746915
vt 0.153216 0.996163
vt 0.130723 0.988011
vn 0.000000 0.000000 1.000000
vn 0.000000 0.000000 1.000000
vn 0.000000 0.000000 1.000000
vn 0.000000 0.000000 1.000000
vn 0.707107 0.707107 0.000000
vn 0.707107 0.707107 0.000000
vn 0.707107 0.707107 0.000000
vn 0.707107 0.707107 0.000000
vn 0.000000 0.000000 -1.000000
vn 0.000000 0.000000 -1.000000
vn 0.000000 0.000000 -1.000000
vn 0.000000 0.000000 -1.000000
vn -0.707107 -0.707107 0.000000
vn -0.707107 -0.707107 0.000000
vn -0.707107 -0.707107 0.000000
vn -0.707107 -0.707107 0.000000
vn 0.707107 -0.707107 0.000000
vn 0.707107 -0.707107 0.000000
vn 0.707107 -0.707107 0.000000
vn 0.707107 -0.707107 0.000000
vn -0.707107 0.707107 0.000000
vn -0.707107 0.707107 0.000000
vn -0.707107 0.707107 0.000000
vn -0.707107 0.707107 0.000000
s off
g pasted__pCube2 group
usemtl Maya_Lambert1SG
f 73/245/227 74/246/228 76/247/229 75/248/230
f 75/237/231 76/238/232 78/239/233 77/240/234
f 77/249/235 78/250/236 80/251/237 79/252/238
f 79/241/239 80/242/240 74/243/241 73/244/242
f 74/229/243 80/230/244 78/231/245 76/232/246
f 79/233/247 73/234/248 75/235/249 77/236/250
g default
v 37.801376 19.462226 -39.838497
v 44.872444 26.533294 -39.838497
v -44.872444 102.136046 -39.838497
v -37.801376 109.207114 -39.838497
v -44.872444 102.136046 -49.838497
v -37.801376 109.207114 -49.838497
v 37.801376 19.462226 -49.838497
v 44.872444 26.533294 -49.838497
vt 0.785194 0.536502
vt 0.807667 0.544706
vt 0.711742 0.807465
vt 0.689268 0.799261
vt 0.369256 0.478498
vt 0.391730 0.486702
vt 0.295804 0.749461
vt 0.273330 0.741257
vt 0.772455 0.023942
vt 0.796380 0.023942
vt 0.796380 0.047867
vt 0.772455 0.047867
vt 0.516951 0.000018
vt 0.540875 0.000018
vt 0.540875 0.023942
vt 0.516951 0.023942
vt 0.583167 0.000008
vt 0.605641 0.008212
vt 0.509715 0.270971
vt 0.487241 0.262767
vt 0.838670 0.562101
vt 0.861144 0.570305
vt 0.765219 0.833065
vt 0.742746 0.824860
vn 0.000000 0.000000 1.000000
vn 0.000000 0.000000 1.000000
vn 0.000000 0.000000 1.000000
vn 0.000000 0.000000 1.000000
vn -0.707107 0.707107 0.000000
vn -0.707107 0.707107 0.000000
vn -0.707107 0.707107 0.000000
vn -0.707107 0.707107 0.000000
vn 0.000000 0.000000 -1.000000
vn 0.000000 0.000000 -1.000000
vn 0.000000 0.000000 -1.000000
vn 0.000000 0.000000 -1.000000
vn 0.707107 -0.707107 0.000000
vn 0.707107 -0.707107 0.000000
vn 0.707107 -0.707107 0.000000
vn 0.707107 -0.707107 0.000000
vn 0.707107 0.707107 0.000000
vn 0.707107 0.707107 0.000000
vn 0.707107 0.707107 0.000000
vn 0.707107 0.707107 0.000000
vn -0.707107 -0.707107 0.000000
vn -0.707107 -0.707107 0.000000
vn -0.707107 -0.707107 0.000000
vn -0.707107 -0.707107 0.000000
s off
g group pasted__pCube3
usemtl Maya_Lambert2SG
f 81/269/251 82/270/252 84/271/253 83/272/254
f 83/261/255 84/262/256 86/263/257 85/264/258
f 85/273/259 86/274/260 88/275/261 87/276/262
f 87/265/263 88/266/264 82/267/265 81/268/266
f 82/253/267 88/254/268 86/255/269 84/256/270
f 87/257/271 81/258/272 83/259/273 85/260/274
g default
v 49.655532 24.357614 47.959048
v 49.655532 17.286546 40.887980
v 49.655532 102.713454 -30.396791
v 49.655532 95.642386 -37.467859
v 39.655532 102.713454 -30.396791
v 39.655532 95.642386 -37.467859
v 39.655532 24.357614 47.959048
v 39.655532 17.286546 40.887980
vt 0.922208 0.677773
vt 0.944701 0.685925
vt 0.854368 0.935172
vt 0.831875 0.927020
vt 0.945976 0.698802
vt 0.968469 0.706954
vt 0.878136 0.956201
vt 0.855643 0.948049
vt 0.386228 0.035905
vt 0.410152 0.035905
vt 0.410152 0.059829
vt 0.386228 0.059829
vt 0.861585 0.000018
vt 0.885509 0.000018
vt 0.885509 0.023942
vt 0.861585 0.023942
vt 0.161637 0.717735
vt 0.184129 0.725887
vt 0.093796 0.975134
vt 0.071304 0.966982
vt 0.197287 0.717734
vt 0.219780 0.725886
vt 0.129448 0.975134
vt 0.106955 0.966982
vn 1.000000 0.000000 0.000000
vn 1.000000 0.000000 0.000000
vn 1.000000 0.000000 0.000000
vn 1.000000 0.000000 0.000000
vn 0.000000 0.707107 -0.707107
vn 0.000000 0.707107 -0.707107
vn 0.000000 0.707107 -0.707107
vn 0.000000 0.707107 -0.707107
vn -1.000000 0.000000 -0.000000
vn -1.000000 0.000000 -0.000000
vn -1.000000 0.000000 -0.000000
vn -1.000000 0.000000 -0.000000
vn 0.000000 -0.707107 0.707107
vn 0.000000 -0.707107 0.707107
vn 0.000000 -0.707107 0.707107
vn 0.000000 -0.707107 0.707107
vn 0.000000 -0.707107 -0.707107
vn 0.000000 -0.707107 -0.707107
vn 0.000000 -0.707107 -0.707107
vn 0.000000 -0.707107 -0.707107
vn 0.000000 0.707107 0.707107
vn 0.000000 0.707107 0.707107
vn 0.000000 0.707107 0.707107
vn 0.000000 0.707107 0.707107
s off
g pasted__pasted__pCube2 pasted__group group1
usemtl Maya_Lambert8SG
f 89/293/275 90/294/276 92/295/277 91/296/278
f 91/285/279 92/286/280 94/287/281 93/288/282
f 93/297/283 94/298/284 96/299/285 95/300/286
f 95/289/287 96/290/288 90/291/289 89/292/290
f 90/277/291 96/278/292 94/279/293 92/280/294
f 95/281/295 89/282/296 91/283/297 93/284/298
g default
v 49.497393 19.462226 -33.238858
v 49.497393 26.533294 -40.309925
v 49.497393 102.136046 49.434962
v 49.497393 109.207114 42.363895
v 39.497393 102.136046 49.434962
v 39.497393 109.207114 42.363895
v 39.497393 19.462226 -33.238858
v 39.497393 26.533294 -40.309925
vt 0.452444 0.531986
vt 0.474917 0.540190
vt 0.378992 0.802949
vt 0.356518 0.794745
vt 0.404908 0.478498
vt 0.427382 0.486702
vt 0.331456 0.749461
vt 0.308982 0.741257
vt 0.041594 0.035905
vt 0.065518 0.035905
vt 0.065518 0.059829
vt 0.041594 0.059829
vt 0.831875 0.000018
vt 0.855800 0.000018
vt 0.855800 0.023942
vt 0.831875 0.023942
vt 0.690122 0.086048
vt 0.712596 0.094253
vt 0.616670 0.357012
vt 0.594196 0.348807
vt 0.808960 0.557441
vt 0.831434 0.565646
vt 0.735510 0.828405
vt 0.713036 0.820201
vn 1.000000 0.000000 0.000000
vn 1.000000 0.000000 0.000000
vn 1.000000 0.000000 0.000000
vn 1.000000 0.000000 0.000000
vn 0.000000 0.707107 0.707107
vn 0.000000 0.707107 0.707107
vn 0.000000 0.707107 0.707107
vn 0.000000 0.707107 0.707107
vn -1.000000 0.000000 0.000000
vn -1.000000 0.000000 0.000000
vn -1.000000 0.000000 0.000000
vn -1.000000 0.000000 0.000000
vn 0.000000 -0.707107 -0.707107
vn 0.000000 -0.707107 -0.707107
vn 0.000000 -0.707107 -0.707107
vn 0.000000 -0.707107 -0.707107
vn 0.000000 0.707107 -0.707107
vn 0.000000 0.707107 -0.707107
vn 0.000000 0.707107 -0.707107
vn 0.000000 0.707107 -0.707107
vn 0.000000 -0.707107 0.707107
vn 0.000000 -0.707107 0.707107
vn 0.000000 -0.707107 0.707107
vn 0.000000 -0.707107 0.707107
s off
g pasted__group group1 pasted__pasted__pCube3
usemtl Maya_Lambert7SG
f 97/317/299 98/318/300 100/319/301 99/320/302
f 99/309/303 100/310/304 102/311/305 101/312/306
f 101/321/307 102/322/308 104/323/309 103/324/310
f 103/313/311 104/314/312 98/315/313 97/316/314
f 98/301/315 104/302/316 102/303/317 100/304/318
f 103/305/319 97/306/320 99/307/321 101/308/322
g default
v -39.496142 24.357614 47.959048
v -39.496142 17.286546 40.887980
v -39.496142 102.713454 -30.396791
v -39.496142 95.642386 -37.467859
v -49.496142 102.713454 -30.396791
v -49.496142 95.642386 -37.467859
v -49.496142 24.357614 47.959048
v -49.496142 17.286546 40.887980
vt 0.452793 0.703480
vt 0.475286 0.711632
vt 0.384953 0.960879
vt 0.362460 0.952727
vt 0.940034 0.004634
vt 0.962527 0.012786
vt 0.872194 0.262033
vt 0.849701 0.253881
vt 0.861585 0.023942
vt 0.885509 0.023942
vt 0.885509 0.047867
vt 0.861585 0.047867
vt 0.713036 0.000018
vt 0.736960 0.000018
vt 0.736960 0.023942
vt 0.713036 0.023942
vt 0.625110 0.717735
vt 0.647603 0.725887
vt 0.557270 0.975134
vt 0.534777 0.966982
vt 0.969742 0.009272
vt 0.992235 0.017424
vt 0.901904 0.266671
vt 0.879411 0.258520
vn 1.000000 0.000000 0.000000
vn 1.000000 0.000000 0.000000
vn 1.000000 0.000000 0.000000
vn 1.000000 0.000000 0.000000
vn 0.000000 0.707107 -0.707107
vn 0.000000 0.707107 -0.707107
vn 0.000000 0.707107 -0.707107
vn 0.000000 0.707107 -0.707107
vn -1.000000 0.000000 -0.000000
vn -1.000000 0.000000 -0.000000
vn -1.000000 0.000000 -0.000000
vn -1.000000 0.000000 -0.000000
vn 0.000000 -0.707107 0.707107
vn 0.000000 -0.707107 0.707107
vn 0.000000 -0.707107 0.707107
vn 0.000000 -0.707107 0.707107
vn 0.000000 -0.707107 -0.707107
vn 0.000000 -0.707107 -0.707107
vn 0.000000 -0.707107 -0.707107
vn 0.000000 -0.707107 -0.707107
vn 0.000000 0.707107 0.707107
vn 0.000000 0.707107 0.707107
vn 0.000000 0.707107 0.707107
vn 0.000000 0.707107 0.707107
s off
g pasted__pasted__pasted__pCube2 pasted__pasted__group pasted__group1 group2
usemtl Maya_Lambert5SG
f 105/341/323 106/342/324 108/343/325 107/344/326
f 107/333/327 108/334/328 110/335/329 109/336/330
f 109/345/331 110/346/332 112/347/333 111/348/334
f 111/337/335 112/338/336 106/339/337 105/340/338
f 106/325/339 112/326/340 110/327/341 108/328/342
f 111/329/343 105/330/344 107/331/345 109/332/346
g default
v -39.654281 21.362450 -31.692886
v -39.654281 28.433518 -38.763954
v -39.654281 100.235822 47.180486
v -39.654281 107.306890 40.109418
v -49.654281 100.235822 47.180486
v -49.654281 107.306890 40.109418
v -49.654281 21.362450 -31.692886
v -49.654281 28.433518 -38.763954
vt 0.875343 0.266365
vt 0.897833 0.274523
vt 0.806830 0.525390
vt 0.784339 0.517231
vt 0.857517 0.596484
vt 0.880007 0.604643
vt 0.789004 0.855510
vt 0.766513 0.847351
vt 0.802165 0.023942
vt 0.826090 0.023942
vt 0.826090 0.047867
vt 0.802165 0.047867
vt 0.487241 0.000018
vt 0.511166 0.000018
vt 0.511166 0.023942
vt 0.487241 0.023942
vt 0.447521 0.631478
vt 0.470012 0.639636
vt 0.379008 0.890503
vt 0.356518 0.882345
vt 0.875341 0.633886
vt 0.897832 0.642044
vt 0.806830 0.892911
vt 0.784339 0.884753
vn 1.000000 0.000000 0.000000
vn 1.000000 0.000000 0.000000
vn 1.000000 0.000000 0.000000
vn 1.000000 0.000000 0.000000
vn 0.000000 0.707107 0.707107
vn 0.000000 0.707107 0.707107
vn 0.000000 0.707107 0.707107
vn 0.000000 0.707107 0.707107
vn -1.000000 0.000000 0.000000
vn -1.000000 0.000000 0.000000
vn -1.000000 0.000000 0.000000
vn -1.000000 0.000000 0.000000
vn 0.000000 -0.707107 -0.707107
vn 0.000000 -0.707107 -0.707107
vn 0.000000 -0.707107 -0.707107
vn 0.000000 -0.707107 -0.707107
vn 0.000000 0.707107 -0.707107
vn 0.000000 0.707107 -0.707107
vn 0.000000 0.707107 -0.707107
vn 0.000000 0.707107 -0.707107
vn 0.000000 -0.707107 0.707107
vn 0.000000 -0.707107 0.707107
vn 0.000000 -0.707107 0.707107
vn 0.000000 -0.707107 0.707107
s off
g pasted__pasted__group pasted__group1 group2 pasted__pasted__pasted__pCube3
usemtl Maya_Lambert6SG
f 113/365/347 114/366/348 116/367/349 115/368/350
f 115/357/351 116/358/352 118/359/353 117/360/354
f 117/369/355 118/370/356 120/371/357 119/372/358
f 119/361/359 120/362/360 114/363/361 113/364/362
f 114/349/363 120/350/364 118/351/365 116/352/366
f 119/353/367 113/354/368 115/355/369 117/356/370
g default
v -39.179784 100.771069 43.560326
v -46.250851 100.771069 36.489258
v 39.176056 100.771069 -34.795514
v 32.104988 100.771069 -41.866582
v 39.176056 110.771069 -34.795514
v 32.104988 110.771069 -41.866582
v -39.179784 110.771069 43.560326
v -46.250851 110.771069 36.489258
vt 0.898440 0.656744
vt 0.920933 0.664896
vt 0.830600 0.914143
vt 0.808107 0.905991
vt 0.518155 0.717735
vt 0.540647 0.725887
vt 0.450314 0.975134
vt 0.427821 0.966982
vt 0.071304 0.035905
vt 0.095228 0.035905
vt 0.095228 0.059829
vt 0.071304 0.059829
vt 0.487241 0.023942
vt 0.511166 0.023942
vt 0.511166 0.047867
vt 0.487241 0.047867
vt 0.125985 0.717735
vt 0.148478 0.725887
vt 0.058145 0.975134
vt 0.035652 0.966982
vt 0.969742 0.719835
vt 0.992235 0.727987
vt 0.901904 0.977234
vt 0.879411 0.969083
vn 0.000000 -1.000000 0.000000
vn 0.000000 -1.000000 0.000000
vn 0.000000 -1.000000 0.000000
vn 0.000000 -1.000000 0.000000
vn 0.707107 0.000000 -0.707107
vn 0.707107 0.000000 -0.707107
vn 0.707107 0.000000 -0.707107
vn 0.707107 0.000000 -0.707107
vn 0.000000 1.000000 -0.000000
vn 0.000000 1.000000 -0.000000
vn 0.000000 1.000000 -0.000000
vn 0.000000 1.000000 -0.000000
vn -0.707107 -0.000000 0.707107
vn -0.707107 -0.000000 0.707107
vn -0.707107 -0.000000 0.707107
vn -0.707107 -0.000000 0.707107
vn -0.707107 0.000000 -0.707107
vn -0.707107 0.000000 -0.707107
vn -0.707107 0.000000 -0.707107
vn -0.707107 0.000000 -0.707107
vn 0.707107 0.000000 0.707107
vn 0.707107 0.000000 0.707107
vn 0.707107 0.000000 0.707107
vn 0.707107 0.000000 0.707107
s off
g pasted__pasted__pasted__pasted__pCube2 pasted__pasted__pasted__group pasted__pasted__group1 pasted__group2 group3
usemtl Maya_Lambert9SG
f 121/389/371 122/390/372 124/391/373 123/392/374
f 123/381/375 124/382/376 126/383/377 125/384/378
f 125/393/379 126/394/380 128/395/381 127/396/382
f 127/385/383 128/386/384 122/387/385 121/388/386
f 122/373/387 128/374/388 126/375/389 124/376/390
f 127/377/391 121/378/392 123/379/393 125/380/394
g default
v -44.075172 100.929209 -36.954504
v -37.004104 100.929209 -44.025572
v 38.598648 100.929209 45.719316
v 45.669716 100.929209 38.648248
v 38.598648 110.929209 45.719316
v 45.669716 110.929209 38.648248
v -44.075172 110.929209 -36.954504
v -37.004104 110.929209 -44.025572
vt 0.743600 0.197684
vt 0.766074 0.205889
vt 0.670148 0.468648
vt 0.647674 0.460443
vt 0.713890 0.193024
vt 0.736364 0.201229
vt 0.640438 0.463988
vt 0.617964 0.455783
vt 0.160433 0.035905
vt 0.184358 0.035905
vt 0.184358 0.059829
vt 0.160433 0.059829
vt 0.802165 0.000018
vt 0.826090 0.000018
vt 0.826090 0.023942
vt 0.802165 0.023942
vt 0.618819 0.000008
vt 0.641292 0.008212
vt 0.545367 0.270971
vt 0.522893 0.262767
vt 0.814902 0.260496
vt 0.837376 0.268700
vt 0.741452 0.531460
vt 0.718978 0.523255
vn 0.000000 -1.000000 0.000000
vn 0.000000 -1.000000 0.000000
vn 0.000000 -1.000000 0.000000
vn 0.000000 -1.000000 0.000000
vn 0.707107 0.000000 0.707107
vn 0.707107 0.000000 0.707107
vn 0.707107 0.000000 0.707107
vn 0.707107 0.000000 0.707107
vn 0.000000 1.000000 0.000000
vn 0.000000 1.000000 0.000000
vn 0.000000 1.000000 0.000000
vn 0.000000 1.000000 0.000000
vn -0.707107 -0.000000 -0.707107
vn -0.707107 -0.000000 -0.707107
vn -0.707107 -0.000000 -0.707107
vn -0.707107 -0.000000 -0.707107
vn 0.707107 0.000000 -0.707107
vn 0.707107 0.000000 -0.707107
vn 0.707107 0.000000 -0.707107
vn 0.707107 0.000000 -0.707107
vn -0.707107 0.000000 0.707107
vn -0.707107 0.000000 0.707107
vn -0.707107 0.000000 0.707107
vn -0.707107 0.000000 0.707107
s off
g pasted__pasted__pasted__group pasted__pasted__group1 pasted__group2 group3 pasted__pasted__pasted__pasted__pCube3
usemtl Maya_Lambert10SG
f 129/413/395 130/414/396 132/415/397 131/416/398
f 131/405/399 132/406/400 134/407/401 133/408/402
f 133/417/403 134/418/404 136/419/405 135/420/406
f 135/409/407 136/410/408 130/411/409 129/412/410
f 130/397/411 136/398/412 134/399/413 132/400/414
f 135/401/415 129/402/416 131/403/417 133/404/418
g default
v -39.179784 11.830182 43.560326
v -46.250851 11.830182 36.489258
v 39.176056 11.830182 -34.795514
v 32.104988 11.830182 -41.866582
v 39.176056 21.830182 -34.795514
v 32.104988 21.830182 -41.866582
v -39.179784 21.830182 43.560326
v -46.250851 21.830182 36.489258
vt 0.898440 0.289226
vt 0.920933 0.297378
vt 0.830600 0.546625
vt 0.808107 0.538474
vt 0.553806 0.717735
vt 0.576299 0.725887
vt 0.485966 0.975134
vt 0.463473 0.966982
vt 0.130723 0.035905
vt 0.154648 0.035905
vt 0.154648 0.059829
vt 0.130723 0.059829
vt 0.516951 0.023942
vt 0.540875 0.023942
vt 0.540875 0.047867
vt 0.516951 0.047867
vt 0.090333 0.717735
vt 0.112826 0.725887
vt 0.022493 0.975134
vt 0.000000 0.966982
vt 0.969742 0.352317
vt 0.992235 0.360469
vt 0.901904 0.609717
vt 0.879411 0.601565
vn 0.000000 -1.000000 0.000000
vn 0.000000 -1.000000 0.000000
vn 0.000000 -1.000000 0.000000
vn 0.000000 -1.000000 0.000000
vn 0.707107 0.000000 -0.707107
vn 0.707107 0.000000 -0.707107
vn 0.707107 0.000000 -0.707107
vn 0.707107 0.000000 -0.707107
vn 0.000000 1.000000 -0.000000
vn 0.000000 1.000000 -0.000000
vn 0.000000 1.000000 -0.000000
vn 0.000000 1.000000 -0.000000
vn -0.707107 -0.000000 0.707107
vn -0.707107 -0.000000 0.707107
vn -0.707107 -0.000000 0.707107
vn -0.707107 -0.000000 0.707107
vn -0.707107 0.000000 -0.707107
vn -0.707107 0.000000 -0.707107
vn -0.707107 0.000000 -0.707107
vn -0.707107 0.000000 -0.707107
vn 0.707107 0.000000 0.707107
vn 0.707107 0.000000 0.707107
vn 0.707107 0.000000 0.707107
vn 0.707107 0.000000 0.707107
s off
g pasted__pasted__pasted__group pasted__pasted__group1 pasted__group2 group3 pasted__pasted__pasted__pasted__pCube4
usemtl Maya_Lambert12SG
f 137/437/419 138/438/420 140/439/421 139/440/422
f 139/429/423 140/430/424 142/431/425 141/432/426
f 141/441/427 142/442/428 144/443/429 143/444/430
f 143/433/431 144/434/432 138/435/433 137/436/434
f 138/421/435 144/422/436 142/423/437 140/424/438
f 143/425/439 137/426/440 139/427/441 141/428/442
g default
v -44.075172 11.988322 -36.954504
v -37.004104 11.988322 -44.025572
v 38.598648 11.988322 45.719316
v 45.669716 11.988322 38.648248
v 38.598648 21.988322 45.719316
v 45.669716 21.988322 38.648248
v -44.075172 21.988322 -36.954504
v -37.004104 21.988322 -44.025572
vt 0.440560 0.478498
vt 0.463033 0.486702
vt 0.367108 0.749461
vt 0.344634 0.741257
vt 0.690122 0.172089
vt 0.712596 0.180293
vt 0.616670 0.443052
vt 0.594196 0.434848
vt 0.415938 0.035905
vt 0.439862 0.035905
vt 0.439862 0.059829
vt 0.415938 0.059829
vt 0.772455 0.000018
vt 0.796380 0.000018
vt 0.796380 0.023942
vt 0.772455 0.023942
vt 0.654471 0.000008
vt 0.676944 0.008212
vt 0.581018 0.270971
vt 0.558545 0.262767
vt 0.803018 0.207007
vt 0.825492 0.215211
vt 0.729568 0.477971
vt 0.707094 0.469767
vn 0.000000 -1.000000 0.000000
vn 0.000000 -1.000000 0.000000
vn 0.000000 -1.000000 0.000000
vn 0.000000 -1.000000 0.000000
vn 0.707107 0.000000 0.707107
vn 0.707107 0.000000 0.707107
vn 0.707107 0.000000 0.707107
vn 0.707107 0.000000 0.707107
vn 0.000000 1.000000 0.000000
vn 0.000000 1.000000 0.000000
vn 0.000000 1.000000 0.000000
vn 0.000000 1.000000 0.000000
vn -0.707107 -0.000000 -0.707107
vn -0.707107 -0.000000 -0.707107
vn -0.707107 -0.000000 -0.707107
vn -0.707107 -0.000000 -0.707107
vn 0.707107 0.000000 -0.707107
vn 0.707107 0.000000 -0.707107
vn 0.707107 0.000000 -0.707107
vn 0.707107 0.000000 -0.707107
vn -0.707107 0.000000 0.707107
vn -0.707107 0.000000 0.707107
vn -0.707107 0.000000 0.707107
vn -0.707107 0.000000 0.707107
s off
g pasted__pasted__pasted__group pasted__pasted__group1 pasted__group2 group3 pasted__pasted__pasted__pasted__pCube5
usemtl Maya_Lambert11SG
f 145/461/443 146/462/444 148/463/445 147/464/446
f 147/453/447 148/454/448 150/455/449 149/456/450
f 149/465/451 150/466/452 152/467/453 151/468/454
f 151/457/455 152/458/456 146/459/457 145/460/458
f 146/445/459 152/446/460 150/447/461 148/448/462
f 151/449/463 145/450/464 147/451/465 149/452/466
